<svg width="64" height="64" viewBox="0 0 64 64" xmlns="http://www.w3.org/2000/svg" class="icon">
<path d="M62 34.1C62 30.3 60.408 27.334 57.666 25.065C59.631 19.15 54.459 21.021 55.699 18.684C57.645 15.019 51.783 9.996 49.152 9.996C49.009 9.996 48.877 10.011 48.756 10.041C48.215 6.52 44.658 3.836 39.896 3.836C38.604 3.836 37.225 4.033 35.792 4.465C35.208 3.034 31.859 2 28.021 2C22.582 2 16.162 4.076 15.245 10.041C15.1153 10.0101 14.9823 9.99494 14.849 9.996C12.218 9.996 6.355 15.019 8.3 18.684C9.543 21.021 4.371 19.15 6.334 25.065C3.593 27.334 2 30.3 2 34.1C2 45.397 8.432 53.02 17.881 56.646C17.672 56.947 17.555 57.257 17.555 57.577C17.556 60.02 24.023 62 32 62C39.979 62 46.445 60.02 46.445 57.576C46.445 57.257 46.33 56.946 46.119 56.645C55.568 53.019 62 45.396 62 34.1ZM7.916 22.387C7.952 22.29 8.183 22.166 8.506 22.001C9.073 21.712 10.022 21.227 10.375 20.107C10.609 19.364 10.505 18.569 10.067 17.746C9.692 17.039 10.08 16.114 10.472 15.462C11.731 13.367 14.107 12.03 14.822 11.996L16.888 12.51L17.221 10.344C18.149 4.305 26.381 4 28.021 4C31.369 4 33.539 4.84 33.97 5.294L34.626 6.903L36.368 6.379C37.5105 6.02647 38.6984 5.84319 39.894 5.835C43.481 5.835 46.377 7.731 46.778 10.344L47.111 12.51L49.177 11.996C49.893 12.029 52.268 13.368 53.528 15.462C53.919 16.113 54.307 17.039 53.932 17.746C53.494 18.57 53.391 19.365 53.625 20.108C53.977 21.226 54.927 21.712 55.494 22.001C55.816 22.166 56.049 22.29 56.084 22.387C56.111 22.46 56.325 23.169 55.439 25.332L54.976 26.551L55.861 27.489C56.731 28.412 57.224 33.378 56.924 34.908C52.814 39.096 42.652 42 32 42C21.349 42 11.188 39.097 7.075 34.909C6.774 33.379 7.267 28.411 8.138 27.489L9.058 26.549L8.56 25.332C7.674 23.169 7.888 22.46 7.916 22.387" />
<path d="M50.0222 33.764C57.4522 35.75 59.1162 30.176 51.6982 28.317C44.3252 26.467 42.6302 31.799 50.0222 33.764ZM39.8602 37.064C45.2822 42.525 49.5242 38.546 44.0482 33.205C38.6102 27.895 34.4662 31.648 39.8602 37.064ZM49.6062 23.188C56.2602 19.327 53.4892 14.213 46.9302 18.157C40.4152 22.068 42.9992 27.033 49.6062 23.188ZM39.8972 13.621C46.9362 16.723 49.4322 11.469 42.3852 8.49602C35.3842 5.53702 32.8942 10.546 39.8972 13.621ZM26.9352 10.322C34.1652 7.69502 32.3372 2.17402 25.1932 4.89802C18.0862 7.60302 19.7512 12.943 26.9352 10.322ZM14.1422 21.303C20.6362 25.426 23.8952 20.61 17.3732 16.611C10.8972 12.632 7.68118 17.213 14.1422 21.303V21.303ZM33.4092 24.234C40.8332 22.224 39.4752 16.567 32.1282 18.681C24.8192 20.777 26.0302 26.24 33.4092 24.234ZM14.2632 33.676C21.1632 30.28 18.7482 24.99 11.9392 28.475C5.17118 31.934 7.40718 37.061 14.2632 33.676ZM28.1652 33.359C20.8922 31.158 18.9452 36.402 26.2312 38.718C33.5582 41.059 35.4892 35.572 28.1652 33.359Z" />
</svg>
