<svg width="64" height="64" viewBox="0 0 64 64" fill="none" xmlns="http://www.w3.org/2000/svg">
<path d="M17.6 6.3999C17.1757 6.3999 16.7687 6.56847 16.4686 6.86853C16.1686 7.16859 16 7.57556 16 7.9999V25.5999C16 29.5664 17.4732 33.3915 20.134 36.3332C22.7948 39.2748 26.4534 41.1233 30.4 41.5199V54.3999H24C23.5757 54.3999 23.1687 54.5685 22.8686 54.8685C22.5686 55.1686 22.4 55.5756 22.4 55.9999C22.4 56.4242 22.5686 56.8312 22.8686 57.1313C23.1687 57.4313 23.5757 57.5999 24 57.5999H40C40.4243 57.5999 40.8313 57.4313 41.1314 57.1313C41.4314 56.8312 41.6 56.4242 41.6 55.9999C41.6 55.5756 41.4314 55.1686 41.1314 54.8685C40.8313 54.5685 40.4243 54.3999 40 54.3999H33.6V41.5199C37.5466 41.1233 41.2052 39.2748 43.866 36.3332C46.5268 33.3915 48.0001 29.5664 48 25.5999V7.9999C48 7.57556 47.8314 7.16859 47.5314 6.86853C47.2313 6.56847 46.8243 6.3999 46.4 6.3999H17.6ZM19.2 17.5999V9.5999H44.8V17.5999H19.2ZM43.0464 25.8399C42.664 28.1374 41.5748 30.2586 39.9304 31.9081C38.286 33.5576 36.1683 34.6535 33.872 35.0431C33.6648 35.0782 33.4528 35.0721 33.2479 35.0253C33.0431 34.9784 32.8495 34.8917 32.6782 34.77C32.5069 34.6483 32.3612 34.4941 32.2495 34.3161C32.1378 34.1381 32.0623 33.9399 32.0272 33.7327C31.9921 33.5255 31.9982 33.3135 32.045 33.1086C32.0919 32.9038 32.1786 32.7102 32.3003 32.5389C32.422 32.3676 32.5762 32.2219 32.7542 32.1102C32.9322 31.9985 33.1304 31.923 33.3376 31.8879C34.9778 31.6097 36.4904 30.8272 37.6651 29.6491C38.8397 28.471 39.6178 26.9561 39.8912 25.3151C39.9718 24.907 40.2082 24.5463 40.5502 24.3095C40.8922 24.0727 41.3131 23.9785 41.7234 24.0467C42.1338 24.115 42.5014 24.3404 42.7484 24.6751C42.9954 25.0099 43.1023 25.4277 43.0464 25.8399V25.8399Z" fill="black"/>
</svg>
