<svg width="359" height="60" viewBox="0 0 359 60" fill="none" xmlns="http://www.w3.org/2000/svg">
<path d="M94.2607 10.5791C94.2021 10.7842 94.1436 11.0479 94.085 11.3701C94.041 11.6777 93.9897 12.022 93.9312 12.4028C95.0005 12.4907 96.1064 12.6079 97.249 12.7544C98.4062 12.9009 99.5342 13.0913 100.633 13.3257C101.731 13.5454 102.779 13.8091 103.775 14.1167C104.786 14.4097 105.694 14.7466 106.5 15.1274L106.324 15.5449C104.712 15.3398 103.101 15.2007 101.49 15.1274C99.8931 15.0396 98.2964 14.9956 96.6997 14.9956C96.187 14.9956 95.667 15.0103 95.1396 15.0396C94.627 15.0688 94.1069 15.0981 93.5796 15.1274C93.4624 16.2114 93.3452 17.4199 93.228 18.7529C93.1108 20.0713 93.001 21.4629 92.8984 22.9277C92.8105 24.3926 92.73 25.9087 92.6567 27.4761C92.5981 29.0288 92.5542 30.5889 92.5249 32.1562C92.4956 33.709 92.4883 35.2397 92.5029 36.7485C92.5322 38.2427 92.5908 39.6709 92.6787 41.0332C92.7666 42.3809 92.8911 43.6333 93.0522 44.7905C93.2134 45.9478 93.4185 46.9512 93.6675 47.8008C93.6968 47.9326 93.7334 48.0645 93.7773 48.1963C93.8359 48.3428 93.8652 48.4819 93.8652 48.6138C93.8652 48.8481 93.8066 49.0312 93.6895 49.1631C93.5723 49.3096 93.3892 49.3828 93.1401 49.3828C92.8179 49.3828 92.4956 49.2949 92.1733 49.1191C91.8657 48.9434 91.5874 48.7749 91.3384 48.6138C90.8989 48.3208 90.562 47.8521 90.3276 47.2075C90.0933 46.563 89.9248 45.8672 89.8223 45.1201C89.7197 44.373 89.6611 43.6406 89.6465 42.9229C89.6318 42.2051 89.6245 41.6118 89.6245 41.1431C89.6245 40.0298 89.6465 38.7993 89.6904 37.4517C89.749 36.104 89.8223 34.6904 89.9102 33.2109C90.0127 31.7168 90.1372 30.186 90.2837 28.6187C90.4302 27.0366 90.606 25.4766 90.811 23.9385C91.0161 22.3857 91.2432 20.8696 91.4922 19.3901C91.7559 17.9106 92.0488 16.519 92.3711 15.2153C91.2871 15.2886 90.2031 15.3911 89.1191 15.5229C88.0498 15.6401 87.0024 15.7866 85.9771 15.9624C84.9663 16.1382 83.9922 16.3359 83.0547 16.5557C82.1318 16.7607 81.2749 16.9951 80.4839 17.2588C80.3081 17.3467 80.1177 17.3906 79.9126 17.3906C79.4878 17.3906 79.2754 17.1782 79.2754 16.7534C79.2754 16.4604 79.356 16.1602 79.5171 15.8525C79.6782 15.5449 79.8394 15.2739 80.0005 15.0396C80.2495 14.688 80.623 14.3804 81.1211 14.1167C81.6045 13.8384 82.1611 13.5967 82.791 13.3916C83.4355 13.1719 84.1094 12.9961 84.8125 12.8643C85.5303 12.7178 86.2261 12.6006 86.8999 12.5127C87.5737 12.4102 88.2036 12.3442 88.7896 12.3149C89.3901 12.271 89.8809 12.249 90.2617 12.249C90.7012 12.249 91.1626 12.2637 91.646 12.293C92.1294 12.3076 92.6274 12.3296 93.1401 12.3589C93.3745 11.6265 93.6162 10.9746 93.8652 10.4033L94.2607 10.5791ZM119.156 38.77C118.907 39.2974 118.599 39.8247 118.233 40.3521C117.881 40.8647 117.486 41.3335 117.046 41.7583C116.607 42.1685 116.124 42.5054 115.596 42.769C115.069 43.0327 114.505 43.1646 113.904 43.1646C113.245 43.1646 112.674 42.9888 112.19 42.6372C111.707 42.3003 111.297 41.8535 110.96 41.2969C110.623 40.7256 110.345 40.0737 110.125 39.3413C109.905 38.6089 109.722 37.8545 109.576 37.0781C109.429 36.3018 109.305 35.5254 109.202 34.749C109.114 33.9727 109.026 33.2622 108.938 32.6177C108.47 33.2329 108.045 33.8848 107.664 34.5732C107.283 35.2617 106.917 35.9795 106.565 36.7266C106.214 37.459 105.87 38.2061 105.533 38.9678C105.196 39.7295 104.837 40.4839 104.456 41.231C104.368 41.3921 104.28 41.5679 104.192 41.7583C104.104 41.9341 104.002 42.0952 103.885 42.2417C103.768 42.4028 103.628 42.5347 103.467 42.6372C103.306 42.7397 103.116 42.791 102.896 42.791C102.691 42.791 102.515 42.7544 102.369 42.6812C102.237 42.6079 102.12 42.5127 102.017 42.3955C101.929 42.293 101.856 42.1758 101.797 42.0439C101.753 41.9121 101.717 41.7876 101.688 41.6704C101.512 41.0405 101.351 40.2495 101.204 39.2974C101.072 38.3452 100.955 37.3271 100.853 36.2432C100.75 35.1592 100.669 34.0605 100.611 32.9473C100.567 31.8193 100.545 30.7793 100.545 29.8271C100.545 28.4648 100.633 27.0659 100.809 25.6304C100.984 24.1802 101.255 22.7666 101.622 21.3896C102.002 20.0127 102.479 18.7163 103.05 17.5005C103.636 16.27 104.324 15.1934 105.115 14.2705C105.906 13.3477 106.807 12.6152 107.818 12.0732C108.843 11.5312 109.986 11.2603 111.246 11.2603C112.081 11.2603 112.74 11.5093 113.223 12.0073C113.707 12.4907 113.948 13.1865 113.948 14.0947C113.948 15.457 113.707 16.7681 113.223 18.0278C112.754 19.2729 112.146 20.4668 111.399 21.6094C110.667 22.752 109.847 23.8359 108.938 24.8613C108.045 25.8721 107.181 26.8096 106.346 27.6738L106.06 27.4541C106.426 27.0439 106.814 26.5386 107.225 25.938C107.649 25.3228 108.06 24.6636 108.455 23.9604C108.865 23.2427 109.253 22.4956 109.62 21.7192C109.986 20.9282 110.308 20.1519 110.586 19.3901C110.865 18.6284 111.084 17.896 111.246 17.1929C111.407 16.4751 111.487 15.8232 111.487 15.2373C111.487 14.9297 111.458 14.6367 111.399 14.3584C111.341 14.0801 111.238 13.8384 111.092 13.6333C110.945 13.4136 110.755 13.2451 110.521 13.1279C110.301 12.9961 110.03 12.9302 109.708 12.9302C109.063 12.9302 108.455 13.1792 107.884 13.6772C107.327 14.1753 106.814 14.8491 106.346 15.6987C105.877 16.5337 105.459 17.5078 105.093 18.6211C104.742 19.7344 104.434 20.8989 104.17 22.1147C103.921 23.3306 103.731 24.561 103.599 25.8062C103.467 27.0513 103.401 28.2378 103.401 29.3657C103.401 30.1274 103.401 30.8965 103.401 31.6729C103.401 32.4492 103.416 33.2622 103.445 34.1118C103.489 34.9614 103.555 35.8623 103.643 36.8145C103.746 37.7666 103.885 38.7993 104.061 39.9126C104.705 38.2427 105.386 36.6094 106.104 35.0127C106.822 33.4014 107.598 31.9292 108.433 30.5962C108.55 30.4058 108.667 30.2153 108.785 30.0249C108.917 29.8345 109.056 29.666 109.202 29.5195C109.349 29.3584 109.51 29.2266 109.686 29.124C109.861 29.0215 110.052 28.9702 110.257 28.9702C110.506 28.9702 110.704 29.0435 110.85 29.1899C110.997 29.3218 111.114 29.4902 111.202 29.6953C111.29 29.9004 111.348 30.1201 111.377 30.3545C111.421 30.5889 111.458 30.8013 111.487 30.9917C111.546 31.4165 111.612 31.9658 111.685 32.6396C111.758 33.3135 111.846 34.0386 111.949 34.8149C112.051 35.5767 112.176 36.3457 112.322 37.1221C112.483 37.8984 112.681 38.6016 112.916 39.2314C113.165 39.8467 113.458 40.3521 113.794 40.7476C114.131 41.1431 114.534 41.3408 115.003 41.3408C115.384 41.3408 115.765 41.2603 116.146 41.0991C116.526 40.938 116.893 40.7329 117.244 40.4839C117.596 40.2349 117.918 39.9492 118.211 39.627C118.519 39.3047 118.775 38.9897 118.98 38.6821L119.156 38.77ZM132.098 38.8579C131.717 39.4146 131.255 39.9346 130.713 40.418C130.186 40.9014 129.6 41.3188 128.956 41.6704C128.326 42.022 127.659 42.3003 126.956 42.5054C126.268 42.7104 125.572 42.813 124.869 42.813C123.873 42.813 122.942 42.6812 122.078 42.4175C121.214 42.1685 120.459 41.7803 119.815 41.2529C119.17 40.7256 118.665 40.0664 118.299 39.2754C117.933 38.4697 117.75 37.5322 117.75 36.4629C117.75 35.4082 117.94 34.4268 118.321 33.5186C118.716 32.5957 119.251 31.7974 119.925 31.1235C120.613 30.4351 121.419 29.8931 122.342 29.4976C123.265 29.1021 124.253 28.9043 125.308 28.9043C125.806 28.9043 126.268 28.9775 126.692 29.124C127.132 29.2559 127.513 29.4609 127.835 29.7393C128.157 30.0029 128.406 30.3325 128.582 30.728C128.772 31.1235 128.868 31.5776 128.868 32.0903C128.868 32.7056 128.743 33.2476 128.494 33.7163C128.245 34.1851 127.916 34.5952 127.505 34.9468C127.095 35.2983 126.626 35.5913 126.099 35.8257C125.586 36.0601 125.044 36.2505 124.473 36.397C123.917 36.5435 123.36 36.6533 122.803 36.7266C122.261 36.7852 121.763 36.8145 121.309 36.8145H120.782C120.972 38.1475 121.5 39.1655 122.364 39.8687C123.228 40.5718 124.422 40.9233 125.945 40.9233C127.029 40.9233 128.084 40.7329 129.109 40.3521C130.149 39.9712 131.087 39.4438 131.922 38.77L132.098 38.8579ZM120.716 36.1553H121.265C121.792 36.1553 122.334 36.0747 122.891 35.9136C123.448 35.7378 123.946 35.4888 124.385 35.1665C124.839 34.8296 125.213 34.4194 125.506 33.936C125.799 33.4526 125.945 32.9033 125.945 32.2881C125.945 31.6875 125.813 31.1895 125.55 30.7939C125.301 30.3984 124.861 30.2007 124.231 30.2007C123.587 30.2007 123.038 30.3984 122.583 30.7939C122.144 31.1748 121.785 31.6509 121.507 32.2222C121.229 32.7788 121.023 33.3721 120.892 34.002C120.774 34.6172 120.716 35.1665 120.716 35.6499V36.1553ZM150.533 48.8774C150.533 49.3901 150.276 49.6465 149.764 49.6465C149.441 49.6465 149.126 49.5659 148.819 49.4048C148.526 49.2437 148.255 49.0825 148.006 48.9214C147.933 48.8774 147.867 48.8262 147.808 48.7676C147.764 48.7236 147.713 48.6724 147.654 48.6138C146.717 48.731 145.831 48.8262 144.996 48.8994C144.161 48.9727 143.45 49.0093 142.864 49.0093C142.469 49.0093 142.037 48.9873 141.568 48.9434C141.099 48.9141 140.66 48.8188 140.25 48.6577C139.825 48.5112 139.473 48.2842 139.195 47.9766C138.917 47.6689 138.777 47.2368 138.777 46.6802C138.777 46.27 138.909 45.8892 139.173 45.5376C139.422 45.186 139.773 45.0103 140.228 45.0103C140.271 45.0103 140.323 45.0176 140.381 45.0322C140.44 45.0469 140.491 45.0542 140.535 45.0542C141.458 45.2593 142.425 45.4277 143.436 45.5596C144.446 45.7061 145.464 45.8232 146.49 45.9111C146.358 45.2959 146.263 44.6514 146.204 43.9775C146.146 43.3184 146.102 42.6738 146.072 42.0439C146.058 41.4141 146.05 40.8281 146.05 40.2861C146.065 39.7441 146.072 39.2974 146.072 38.9458C146.072 37.8765 146.087 36.7046 146.116 35.4302C146.146 34.1411 146.189 32.8008 146.248 31.4092C146.321 30.0029 146.409 28.5674 146.512 27.1025C146.629 25.623 146.761 24.1582 146.907 22.708C147.068 21.2432 147.251 19.8223 147.457 18.4453C147.676 17.0537 147.925 15.7427 148.204 14.5122C146.958 14.688 145.75 14.9004 144.578 15.1494C143.406 15.3838 142.33 15.6475 141.348 15.9404C141.26 15.9697 141.18 15.9844 141.106 15.9844C141.033 15.9844 140.96 15.9844 140.887 15.9844C140.667 15.9844 140.469 15.9331 140.293 15.8306C140.103 15.728 139.949 15.5962 139.832 15.4351C139.715 15.2739 139.627 15.0908 139.568 14.8857C139.495 14.6807 139.458 14.4756 139.458 14.2705C139.458 13.8311 139.568 13.4648 139.788 13.1719C139.993 12.8789 140.264 12.6372 140.601 12.4468C140.938 12.2563 141.319 12.1172 141.744 12.0293C142.183 11.9414 142.623 11.8755 143.062 11.8315C143.501 11.7876 143.919 11.7656 144.314 11.7656C144.725 11.7656 145.083 11.7656 145.391 11.7656C145.845 11.7656 146.373 11.7803 146.973 11.8096C147.574 11.8242 148.211 11.8608 148.885 11.9194C148.958 11.6558 149.039 11.4067 149.126 11.1724C149.214 10.9233 149.302 10.6816 149.39 10.4473L149.852 10.645C149.793 10.938 149.727 11.3848 149.654 11.9854C150.416 12.0586 151.192 12.1465 151.983 12.249C152.774 12.3369 153.528 12.4541 154.246 12.6006C154.964 12.7471 155.623 12.9155 156.224 13.106C156.824 13.2817 157.322 13.4795 157.718 13.6992L157.498 14.0508C157.132 14.0068 156.758 13.9849 156.377 13.9849C156.011 13.9702 155.652 13.9629 155.301 13.9629C154.422 13.9629 153.484 13.9995 152.488 14.0728C151.492 14.146 150.467 14.2412 149.412 14.3584C149.339 15.3398 149.266 16.4458 149.192 17.6763C149.119 18.8921 149.053 20.1958 148.995 21.5874C148.951 22.979 148.914 24.4219 148.885 25.916C148.855 27.4102 148.841 28.9189 148.841 30.4424C148.841 31.9512 148.855 33.4453 148.885 34.9248C148.914 36.4043 148.965 37.8179 149.039 39.1655C149.126 40.5132 149.229 41.7729 149.346 42.9448C149.478 44.1313 149.632 45.1787 149.808 46.0869C150.203 46.1016 150.591 46.1089 150.972 46.1089C151.368 46.1235 151.756 46.1309 152.137 46.1309C152.913 46.1309 153.697 46.1089 154.488 46.0649C155.279 46.0356 156.055 45.9404 156.817 45.7793L157.037 46.1309C156.729 46.3506 156.333 46.5557 155.85 46.7461C155.381 46.9365 154.854 47.1196 154.268 47.2954C153.697 47.4712 153.074 47.6323 152.4 47.7788C151.741 47.9399 151.067 48.0791 150.379 48.1963C150.423 48.3135 150.459 48.4233 150.489 48.5259C150.518 48.6431 150.533 48.7603 150.533 48.8774ZM173.384 38.8579C173.106 39.3853 172.806 39.8906 172.483 40.374C172.176 40.8574 171.824 41.2822 171.429 41.6484C171.033 42.0146 170.586 42.3076 170.088 42.5273C169.59 42.7471 169.019 42.8569 168.375 42.8569C167.642 42.8569 167.012 42.6738 166.485 42.3076C165.958 41.9561 165.503 41.4873 165.123 40.9014C164.756 40.3008 164.456 39.6196 164.222 38.8579C164.002 38.0962 163.819 37.3198 163.672 36.5288C163.526 35.7378 163.416 34.9614 163.343 34.1997C163.27 33.4233 163.204 32.7275 163.145 32.1123C162.867 32.332 162.53 32.7568 162.134 33.3867C161.739 34.002 161.336 34.7271 160.926 35.562C160.516 36.397 160.12 37.3052 159.739 38.2866C159.373 39.2681 159.073 40.2349 158.838 41.187C158.794 41.3921 158.721 41.6045 158.619 41.8242C158.531 42.0439 158.414 42.2417 158.267 42.4175C158.135 42.6079 157.974 42.7617 157.784 42.8789C157.593 43.0107 157.381 43.0767 157.146 43.0767C156.766 43.0767 156.487 42.9448 156.312 42.6812C156.15 42.4175 156.033 42.1172 155.96 41.7803C155.535 39.9199 155.235 38.1401 155.059 36.4409C154.898 34.7417 154.817 33.0425 154.817 31.3433C154.817 30.9331 154.883 30.5815 155.015 30.2886C155.162 29.981 155.352 29.7319 155.586 29.5415C155.821 29.3364 156.099 29.1899 156.421 29.1021C156.744 28.9995 157.081 28.9482 157.432 28.9482C157.476 28.9482 157.542 28.9482 157.63 28.9482C157.732 28.9482 157.828 28.9629 157.916 28.9922C158.003 29.0068 158.077 29.0361 158.135 29.0801C158.194 29.124 158.216 29.1826 158.201 29.2559C157.82 31.1748 157.637 33.1304 157.652 35.1226C157.667 37.1001 157.769 39.0044 157.959 40.8354C158.121 40.103 158.355 39.2754 158.663 38.3525C158.985 37.415 159.351 36.4775 159.761 35.54C160.186 34.5879 160.64 33.687 161.124 32.8374C161.622 31.9731 162.127 31.248 162.64 30.6621C162.889 30.3838 163.138 30.1494 163.387 29.959C163.65 29.7539 163.973 29.6514 164.354 29.6514C164.573 29.6514 164.756 29.6953 164.903 29.7832C165.049 29.8711 165.167 29.981 165.254 30.1128C165.357 30.2446 165.43 30.3984 165.474 30.5742C165.533 30.7354 165.577 30.8965 165.606 31.0576C165.679 31.4824 165.752 32.0317 165.826 32.7056C165.899 33.3794 165.987 34.0972 166.089 34.8589C166.207 35.6206 166.346 36.3896 166.507 37.166C166.668 37.9277 166.873 38.6235 167.122 39.2534C167.371 39.8687 167.671 40.374 168.023 40.7695C168.375 41.165 168.792 41.3628 169.275 41.3628C169.671 41.3628 170.052 41.2896 170.418 41.1431C170.799 40.9819 171.158 40.7842 171.495 40.5498C171.832 40.3008 172.146 40.0225 172.439 39.7148C172.732 39.3926 172.996 39.0776 173.23 38.77L173.384 38.8579ZM192.654 38.8579C192.42 39.3413 192.127 39.7808 191.775 40.1763C191.424 40.5571 191.028 40.8867 190.589 41.165C190.149 41.4287 189.681 41.6338 189.183 41.7803C188.685 41.9268 188.165 42 187.623 42C186.48 42 185.506 41.7217 184.7 41.165C183.909 40.6084 183.243 39.8833 182.701 38.9897C182.305 39.4292 181.866 39.8687 181.382 40.3081C180.914 40.7329 180.408 41.1138 179.866 41.4507C179.339 41.7729 178.79 42.0366 178.218 42.2417C177.647 42.4468 177.076 42.5493 176.504 42.5493C175.816 42.5493 175.201 42.4102 174.659 42.1318C174.117 41.8535 173.655 41.4873 173.274 41.0332C172.894 40.5645 172.601 40.0371 172.396 39.4512C172.19 38.8506 172.088 38.228 172.088 37.5835C172.088 36.6167 172.3 35.6426 172.725 34.6611C173.165 33.6797 173.736 32.7935 174.439 32.0024C175.157 31.1968 175.977 30.5449 176.9 30.0469C177.823 29.5488 178.782 29.2998 179.778 29.2998C180.071 29.2998 180.328 29.3291 180.547 29.3877V28.4648C180.547 28.04 180.562 27.4761 180.591 26.7729C180.621 26.0698 180.679 25.2935 180.767 24.4438C180.855 23.5796 180.965 22.6787 181.097 21.7412C181.243 20.7891 181.426 19.8516 181.646 18.9287C181.88 17.9912 182.151 17.105 182.459 16.27C182.767 15.4204 183.125 14.6807 183.536 14.0508C183.946 13.4063 184.415 12.8936 184.942 12.5127C185.469 12.1318 186.062 11.9414 186.722 11.9414C187.498 11.9414 188.128 12.1685 188.611 12.6226C189.095 13.0767 189.476 13.6406 189.754 14.3145C190.032 14.9736 190.215 15.6768 190.303 16.4238C190.406 17.1709 190.457 17.8374 190.457 18.4233C190.457 19.1851 190.384 20.0713 190.237 21.082C190.091 22.0781 189.886 23.1401 189.622 24.2681C189.358 25.3813 189.043 26.5239 188.677 27.6958C188.311 28.8677 187.916 29.9956 187.491 31.0796C187.066 32.1636 186.604 33.1743 186.106 34.1118C185.623 35.0347 185.132 35.8184 184.634 36.4629C184.825 37.0342 185.052 37.5615 185.315 38.0449C185.594 38.5283 185.916 38.9458 186.282 39.2974C186.648 39.6489 187.066 39.9272 187.535 40.1323C188.003 40.3228 188.538 40.418 189.139 40.418C190.516 40.418 191.644 39.8687 192.522 38.77L192.654 38.8579ZM183.646 26.6191C183.646 27.1465 183.646 27.7617 183.646 28.4648C183.646 29.1533 183.66 29.8857 183.689 30.6621C183.733 31.4385 183.799 32.2368 183.887 33.0571C183.99 33.8628 184.136 34.6465 184.327 35.4082C184.942 34.2217 185.506 32.9253 186.019 31.519C186.531 30.0981 186.971 28.6479 187.337 27.1685C187.718 25.6743 188.011 24.1875 188.216 22.708C188.421 21.2285 188.523 19.8296 188.523 18.5112C188.523 18.2329 188.509 17.8301 188.479 17.3027C188.45 16.7754 188.37 16.2554 188.238 15.7427C188.106 15.2153 187.908 14.7612 187.645 14.3804C187.381 13.9849 187.022 13.7871 186.568 13.7871C186.216 13.7871 185.901 13.9556 185.623 14.2925C185.345 14.6147 185.103 15.0542 184.898 15.6108C184.693 16.1528 184.517 16.7754 184.371 17.4785C184.239 18.1816 184.122 18.9141 184.019 19.6758C183.931 20.4375 183.858 21.1919 183.799 21.939C183.755 22.686 183.719 23.3818 183.689 24.0264C183.675 24.6562 183.66 25.2056 183.646 25.6743C183.646 26.1284 183.646 26.4434 183.646 26.6191ZM178.108 40.1543C178.943 40.1543 179.712 39.9932 180.416 39.6709C181.133 39.3486 181.785 38.9238 182.371 38.3965C182.093 37.8545 181.851 37.2759 181.646 36.6606C181.456 36.0308 181.287 35.4009 181.141 34.771C181.009 34.1265 180.899 33.4819 180.811 32.8374C180.738 32.1929 180.679 31.5703 180.635 30.9697C180.459 30.7793 180.24 30.6255 179.976 30.5083C179.712 30.3765 179.39 30.3105 179.009 30.3105C178.321 30.3105 177.706 30.501 177.164 30.8818C176.636 31.248 176.189 31.7168 175.823 32.2881C175.457 32.8447 175.179 33.46 174.988 34.1338C174.798 34.793 174.703 35.4229 174.703 36.0234C174.703 36.5801 174.761 37.1147 174.878 37.6274C175.01 38.1255 175.215 38.5649 175.494 38.9458C175.772 39.312 176.124 39.605 176.548 39.8247C176.988 40.0444 177.508 40.1543 178.108 40.1543ZM196.697 24.2681C196.697 24.561 196.631 24.854 196.5 25.147C196.368 25.4399 196.192 25.7036 195.972 25.938C195.767 26.1577 195.525 26.3408 195.247 26.4873C194.969 26.6338 194.683 26.707 194.39 26.707C194.009 26.707 193.702 26.5825 193.467 26.3335C193.248 26.0845 193.138 25.7695 193.138 25.3887C193.138 25.0957 193.204 24.8101 193.335 24.5317C193.467 24.2388 193.636 23.9824 193.841 23.7627C194.061 23.543 194.302 23.3672 194.566 23.2354C194.844 23.0889 195.13 23.0156 195.423 23.0156C195.804 23.0156 196.111 23.1328 196.346 23.3672C196.58 23.6016 196.697 23.9019 196.697 24.2681ZM202.85 38.8579C202.513 39.4146 202.11 39.9272 201.641 40.396C201.187 40.8501 200.682 41.2529 200.125 41.6045C199.583 41.9414 198.997 42.2051 198.367 42.3955C197.752 42.5859 197.115 42.6812 196.456 42.6812C195.635 42.6812 194.903 42.542 194.258 42.2637C193.628 41.9854 193.094 41.6045 192.654 41.1211C192.229 40.623 191.9 40.0444 191.666 39.3853C191.446 38.7114 191.336 37.979 191.336 37.188C191.336 36.3384 191.46 35.5327 191.709 34.771C191.958 34.0093 192.303 33.2988 192.742 32.6396C193.182 31.9658 193.694 31.3506 194.28 30.7939C194.881 30.2373 195.518 29.7393 196.192 29.2998L196.456 29.4976C195.738 30.3472 195.152 31.2993 194.698 32.354C194.258 33.4087 194.039 34.5073 194.039 35.6499C194.039 36.3091 194.112 36.9463 194.258 37.5615C194.419 38.1621 194.661 38.6968 194.983 39.1655C195.32 39.6343 195.745 40.0078 196.258 40.2861C196.771 40.5645 197.393 40.7036 198.125 40.7036C198.99 40.7036 199.81 40.5205 200.586 40.1543C201.377 39.7881 202.088 39.3267 202.718 38.77L202.85 38.8579ZM212.122 30.4863C212.122 30.6475 212.063 30.7939 211.946 30.9258C211.829 31.043 211.69 31.1016 211.529 31.1016C211.397 31.1016 211.258 31.0649 211.111 30.9917C210.965 30.9038 210.796 30.8086 210.606 30.7061C210.43 30.6035 210.218 30.5156 209.969 30.4424C209.734 30.3545 209.463 30.3105 209.156 30.3105C208.438 30.3105 207.793 30.5376 207.222 30.9917C206.666 31.4312 206.189 31.9805 205.794 32.6396C205.413 33.2988 205.12 34.002 204.915 34.749C204.71 35.4961 204.607 36.1699 204.607 36.7705C204.607 37.1953 204.644 37.6128 204.717 38.0229C204.791 38.4185 204.915 38.7847 205.091 39.1216C205.281 39.4438 205.538 39.7075 205.86 39.9126C206.182 40.103 206.592 40.1982 207.09 40.1982C207.618 40.1982 208.123 40.103 208.606 39.9126C209.09 39.7075 209.544 39.4438 209.969 39.1216C209.983 38.6528 210.057 38.1621 210.188 37.6494C210.335 37.1221 210.518 36.6094 210.738 36.1113C210.958 35.5986 211.207 35.1152 211.485 34.6611C211.778 34.207 212.078 33.8042 212.386 33.4526L212.671 33.6284C212.51 34.1265 212.393 34.6392 212.32 35.1665C212.247 35.6938 212.21 36.2139 212.21 36.7266C212.21 37.2539 212.254 37.752 212.342 38.2207C212.43 38.6895 212.583 39.0996 212.803 39.4512C213.023 39.7881 213.323 40.0591 213.704 40.2642C214.085 40.4546 214.576 40.5498 215.176 40.5498C215.909 40.5498 216.583 40.3813 217.198 40.0444C217.813 39.7075 218.355 39.2827 218.824 38.77L219 38.8579C218.736 39.3706 218.392 39.8613 217.967 40.3301C217.542 40.7988 217.066 41.2236 216.539 41.6045C216.026 41.9707 215.477 42.2637 214.891 42.4834C214.305 42.7031 213.726 42.813 213.155 42.813C212.349 42.813 211.69 42.5786 211.177 42.1099C210.665 41.6558 210.313 41.0771 210.123 40.374C209.507 40.9893 208.819 41.5093 208.057 41.9341C207.31 42.3442 206.519 42.5493 205.684 42.5493C205.069 42.5493 204.52 42.4321 204.036 42.1978C203.567 41.978 203.172 41.6777 202.85 41.2969C202.527 40.916 202.278 40.4692 202.103 39.9565C201.941 39.4292 201.861 38.8799 201.861 38.3086C201.861 37.6494 201.963 36.9756 202.168 36.2871C202.388 35.584 202.681 34.8955 203.047 34.2217C203.428 33.5479 203.875 32.9106 204.388 32.3101C204.9 31.7095 205.457 31.1821 206.058 30.728C206.673 30.2739 207.317 29.915 207.991 29.6514C208.665 29.3877 209.354 29.2559 210.057 29.2559C210.218 29.2559 210.416 29.2778 210.65 29.3218C210.884 29.3511 211.111 29.4097 211.331 29.4976C211.551 29.5854 211.734 29.71 211.88 29.8711C212.042 30.0322 212.122 30.2373 212.122 30.4863ZM236.929 38.8579C236.651 39.3853 236.351 39.8906 236.028 40.374C235.721 40.8574 235.369 41.2822 234.974 41.6484C234.578 42.0146 234.131 42.3076 233.633 42.5273C233.135 42.7471 232.564 42.8569 231.919 42.8569C231.187 42.8569 230.557 42.6738 230.03 42.3076C229.502 41.9561 229.048 41.4873 228.667 40.9014C228.301 40.3008 228.001 39.6196 227.767 38.8579C227.547 38.0962 227.364 37.3198 227.217 36.5288C227.071 35.7378 226.961 34.9614 226.888 34.1997C226.814 33.4233 226.749 32.7275 226.69 32.1123C226.412 32.332 226.075 32.7568 225.679 33.3867C225.284 34.002 224.881 34.7271 224.471 35.562C224.061 36.397 223.665 37.3052 223.284 38.2866C222.918 39.2681 222.618 40.2349 222.383 41.187C222.339 41.3921 222.266 41.6045 222.164 41.8242C222.076 42.0439 221.958 42.2417 221.812 42.4175C221.68 42.6079 221.519 42.7617 221.329 42.8789C221.138 43.0107 220.926 43.0767 220.691 43.0767C220.311 43.0767 220.032 42.9448 219.856 42.6812C219.695 42.4175 219.578 42.1172 219.505 41.7803C219.08 39.9199 218.78 38.1401 218.604 36.4409C218.443 34.7417 218.362 33.0425 218.362 31.3433C218.362 30.9331 218.428 30.5815 218.56 30.2886C218.707 29.981 218.897 29.7319 219.131 29.5415C219.366 29.3364 219.644 29.1899 219.966 29.1021C220.289 28.9995 220.625 28.9482 220.977 28.9482C221.021 28.9482 221.087 28.9482 221.175 28.9482C221.277 28.9482 221.373 28.9629 221.46 28.9922C221.548 29.0068 221.622 29.0361 221.68 29.0801C221.739 29.124 221.761 29.1826 221.746 29.2559C221.365 31.1748 221.182 33.1304 221.197 35.1226C221.211 37.1001 221.314 39.0044 221.504 40.8354C221.666 40.103 221.9 39.2754 222.208 38.3525C222.53 37.415 222.896 36.4775 223.306 35.54C223.731 34.5879 224.185 33.687 224.668 32.8374C225.167 31.9731 225.672 31.248 226.185 30.6621C226.434 30.3838 226.683 30.1494 226.932 29.959C227.195 29.7539 227.518 29.6514 227.898 29.6514C228.118 29.6514 228.301 29.6953 228.448 29.7832C228.594 29.8711 228.711 29.981 228.799 30.1128C228.902 30.2446 228.975 30.3984 229.019 30.5742C229.078 30.7354 229.122 30.8965 229.151 31.0576C229.224 31.4824 229.297 32.0317 229.371 32.7056C229.444 33.3794 229.532 34.0972 229.634 34.8589C229.751 35.6206 229.891 36.3896 230.052 37.166C230.213 37.9277 230.418 38.6235 230.667 39.2534C230.916 39.8687 231.216 40.374 231.568 40.7695C231.919 41.165 232.337 41.3628 232.82 41.3628C233.216 41.3628 233.597 41.2896 233.963 41.1431C234.344 40.9819 234.703 40.7842 235.04 40.5498C235.376 40.3008 235.691 40.0225 235.984 39.7148C236.277 39.3926 236.541 39.0776 236.775 38.77L236.929 38.8579ZM271.163 31.8706C271.163 33.3501 271.009 34.8369 270.701 36.3311C270.394 37.8105 269.939 39.2314 269.339 40.5938C268.738 41.9414 267.999 43.1938 267.12 44.3511C266.241 45.5229 265.23 46.5337 264.087 47.3833C262.959 48.2476 261.692 48.9214 260.286 49.4048C258.895 49.9028 257.386 50.1519 255.76 50.1519C254.31 50.1519 253.006 49.9541 251.849 49.5586C250.706 49.1777 249.732 48.6064 248.926 47.8447C248.135 47.083 247.527 46.1455 247.103 45.0322C246.678 43.9189 246.465 42.6372 246.465 41.187C246.465 40.6743 246.487 40.1616 246.531 39.6489C246.575 39.1362 246.656 38.6309 246.773 38.1328L247.125 38.0889V38.3965C247.11 39.7295 247.293 41.0259 247.674 42.2856C248.069 43.5601 248.648 44.688 249.41 45.6694C250.186 46.6655 251.146 47.4639 252.288 48.0645C253.445 48.665 254.771 48.9653 256.265 48.9653C257.745 48.9653 259.056 48.6724 260.198 48.0864C261.355 47.5151 262.359 46.7461 263.208 45.7793C264.058 44.8125 264.769 43.6992 265.34 42.4395C265.926 41.1943 266.395 39.8979 266.746 38.5503C267.098 37.188 267.347 35.8403 267.493 34.5073C267.654 33.1597 267.735 31.9072 267.735 30.75C267.735 29.6074 267.625 28.3623 267.405 27.0146C267.2 25.6523 266.878 24.29 266.438 22.9277C266.014 21.5654 265.464 20.2471 264.791 18.9727C264.131 17.6982 263.348 16.5703 262.439 15.5889C261.531 14.6074 260.491 13.8237 259.319 13.2378C258.162 12.6372 256.873 12.3369 255.452 12.3369C254.91 12.3369 254.354 12.4321 253.782 12.6226C253.211 12.7983 252.647 13.0474 252.09 13.3696C251.534 13.6772 251.006 14.0435 250.508 14.4683C250.025 14.8931 249.6 15.3618 249.234 15.8745C248.868 16.3726 248.575 16.8999 248.355 17.4565C248.135 17.9985 248.025 18.5479 248.025 19.1045C248.025 19.5146 248.077 19.8809 248.179 20.2031C248.282 20.5254 248.392 20.8257 248.509 21.104C248.641 21.3677 248.758 21.624 248.86 21.873C248.963 22.1074 249.014 22.3491 249.014 22.5981C249.014 23.0229 248.868 23.3818 248.575 23.6748C248.296 23.9531 247.952 24.0923 247.542 24.0923C247.205 24.0923 246.934 24.019 246.729 23.8726C246.524 23.7261 246.363 23.543 246.246 23.3232C246.143 23.0889 246.07 22.8325 246.026 22.5542C245.982 22.2759 245.96 22.0049 245.96 21.7412C245.96 21.1113 246.048 20.4814 246.224 19.8516C246.399 19.2217 246.634 18.6138 246.927 18.0278C247.22 17.4272 247.557 16.8633 247.938 16.3359C248.318 15.7939 248.707 15.2886 249.102 14.8198C250.069 13.7212 251.16 12.8569 252.376 12.2271C253.592 11.5825 254.947 11.2603 256.441 11.2603C258.272 11.2603 259.905 11.5605 261.341 12.1611C262.791 12.7617 264.058 13.582 265.142 14.6221C266.241 15.6475 267.171 16.8486 267.933 18.2256C268.694 19.5879 269.31 21.0308 269.778 22.5542C270.262 24.0776 270.613 25.6377 270.833 27.2344C271.053 28.8311 271.163 30.3765 271.163 31.8706ZM256.265 17.105C256.265 17.2515 256.243 17.3906 256.199 17.5225C256.17 17.6396 256.133 17.7568 256.089 17.874C255.84 18.5332 255.555 19.1704 255.232 19.7856C254.925 20.3862 254.683 21.0234 254.507 21.6973C253.848 24.2168 253.372 26.5459 253.079 28.6846C252.786 30.8232 252.603 32.8667 252.53 34.8149C252.471 36.7485 252.486 38.6455 252.574 40.5059C252.662 42.3516 252.764 44.2412 252.881 46.1748L252.53 46.3286C252.149 45.1567 251.827 43.9336 251.563 42.6592C251.314 41.3994 251.109 40.1177 250.948 38.814C250.801 37.5103 250.699 36.2065 250.64 34.9028C250.582 33.5991 250.552 32.332 250.552 31.1016C250.552 30.5303 250.56 29.8345 250.574 29.0142C250.604 28.1938 250.655 27.3149 250.728 26.3774C250.801 25.4399 250.911 24.4878 251.058 23.521C251.204 22.5542 251.402 21.646 251.651 20.7964C251.915 19.9468 252.229 19.1924 252.596 18.5332C252.977 17.874 253.438 17.3833 253.98 17.061C254.229 16.9292 254.485 16.8047 254.749 16.6875C255.013 16.5557 255.291 16.4897 255.584 16.4897C256.038 16.4897 256.265 16.6948 256.265 17.105ZM287.62 38.8579C287.239 39.4146 286.778 39.9346 286.236 40.418C285.708 40.9014 285.123 41.3188 284.478 41.6704C283.848 42.022 283.182 42.3003 282.479 42.5054C281.79 42.7104 281.094 42.813 280.391 42.813C279.395 42.813 278.465 42.6812 277.601 42.4175C276.736 42.1685 275.982 41.7803 275.337 41.2529C274.693 40.7256 274.188 40.0664 273.821 39.2754C273.455 38.4697 273.272 37.5322 273.272 36.4629C273.272 35.4082 273.462 34.4268 273.843 33.5186C274.239 32.5957 274.773 31.7974 275.447 31.1235C276.136 30.4351 276.941 29.8931 277.864 29.4976C278.787 29.1021 279.776 28.9043 280.831 28.9043C281.329 28.9043 281.79 28.9775 282.215 29.124C282.654 29.2559 283.035 29.4609 283.357 29.7393C283.68 30.0029 283.929 30.3325 284.104 30.728C284.295 31.1235 284.39 31.5776 284.39 32.0903C284.39 32.7056 284.266 33.2476 284.017 33.7163C283.768 34.1851 283.438 34.5952 283.028 34.9468C282.618 35.2983 282.149 35.5913 281.622 35.8257C281.109 36.0601 280.567 36.2505 279.996 36.397C279.439 36.5435 278.882 36.6533 278.326 36.7266C277.784 36.7852 277.286 36.8145 276.832 36.8145H276.304C276.495 38.1475 277.022 39.1655 277.886 39.8687C278.75 40.5718 279.944 40.9233 281.468 40.9233C282.552 40.9233 283.606 40.7329 284.632 40.3521C285.672 39.9712 286.609 39.4438 287.444 38.77L287.62 38.8579ZM276.238 36.1553H276.788C277.315 36.1553 277.857 36.0747 278.414 35.9136C278.97 35.7378 279.468 35.4888 279.908 35.1665C280.362 34.8296 280.735 34.4194 281.028 33.936C281.321 33.4526 281.468 32.9033 281.468 32.2881C281.468 31.6875 281.336 31.1895 281.072 30.7939C280.823 30.3984 280.384 30.2007 279.754 30.2007C279.109 30.2007 278.56 30.3984 278.106 30.7939C277.667 31.1748 277.308 31.6509 277.029 32.2222C276.751 32.7788 276.546 33.3721 276.414 34.002C276.297 34.6172 276.238 35.1665 276.238 35.6499V36.1553ZM298.409 39.583C297.94 40.5498 297.281 41.3188 296.431 41.8901C295.582 42.4468 294.615 42.7251 293.531 42.7251C292.637 42.7251 291.839 42.4541 291.136 41.9121C290.433 41.3701 289.81 40.6597 289.268 39.7808C288.741 38.9019 288.287 37.9131 287.906 36.8145C287.54 35.7012 287.232 34.5732 286.983 33.4307C286.749 32.2881 286.573 31.1895 286.456 30.1348C286.353 29.0654 286.302 28.1353 286.302 27.3442C286.302 26.3774 286.353 25.3154 286.456 24.1582C286.558 23.001 286.727 21.8364 286.961 20.6646C287.195 19.478 287.496 18.3281 287.862 17.2148C288.243 16.1016 288.697 15.1201 289.224 14.2705C289.766 13.4063 290.389 12.7178 291.092 12.2051C291.795 11.6777 292.601 11.4141 293.509 11.4141C294.285 11.4141 294.915 11.6411 295.398 12.0952C295.882 12.5493 296.263 13.1133 296.541 13.7871C296.819 14.4463 297.002 15.1494 297.09 15.8965C297.193 16.6436 297.244 17.3101 297.244 17.896C297.244 19.478 297.054 21.0381 296.673 22.5762C296.307 24.0996 295.794 25.5425 295.135 26.9048C294.49 28.2524 293.729 29.4829 292.85 30.5962C291.971 31.6948 291.026 32.6177 290.015 33.3647C290.22 34.3462 290.462 35.3057 290.74 36.2432C291.033 37.166 291.385 37.9937 291.795 38.7261C292.205 39.4438 292.674 40.0298 293.201 40.4839C293.743 40.9233 294.358 41.1431 295.047 41.1431C295.735 41.1431 296.329 41.0039 296.827 40.7256C297.325 40.4473 297.786 40.0371 298.211 39.4951L298.409 39.583ZM289.356 26.0259C289.341 26.3481 289.334 26.7437 289.334 27.2124C289.349 27.6812 289.371 28.2012 289.4 28.7725C289.444 29.3291 289.502 29.9297 289.576 30.5742C289.649 31.2188 289.744 31.8779 289.861 32.5518C290.843 31.6729 291.678 30.6987 292.366 29.6294C293.055 28.5601 293.619 27.4102 294.058 26.1797C294.498 24.9346 294.812 23.6309 295.003 22.2686C295.208 20.8916 295.311 19.4634 295.311 17.9839C295.311 17.7935 295.303 17.5444 295.289 17.2368C295.289 16.9292 295.267 16.5996 295.223 16.248C295.179 15.8965 295.113 15.5449 295.025 15.1934C294.952 14.8418 294.842 14.5269 294.695 14.2485C294.563 13.9556 294.388 13.7212 294.168 13.5454C293.963 13.355 293.714 13.2598 293.421 13.2598C292.864 13.2598 292.374 13.5381 291.949 14.0947C291.539 14.6367 291.18 15.3325 290.872 16.1821C290.579 17.0317 290.33 17.9692 290.125 18.9946C289.935 20.02 289.781 21.0088 289.664 21.9609C289.546 22.8984 289.466 23.7407 289.422 24.4878C289.378 25.2349 289.356 25.7476 289.356 26.0259ZM303.265 24.2681C303.265 24.561 303.199 24.854 303.067 25.147C302.935 25.4399 302.759 25.7036 302.54 25.938C302.334 26.1577 302.093 26.3408 301.814 26.4873C301.536 26.6338 301.25 26.707 300.958 26.707C300.577 26.707 300.269 26.5825 300.035 26.3335C299.815 26.0845 299.705 25.7695 299.705 25.3887C299.705 25.0957 299.771 24.8101 299.903 24.5317C300.035 24.2388 300.203 23.9824 300.408 23.7627C300.628 23.543 300.87 23.3672 301.133 23.2354C301.412 23.0889 301.697 23.0156 301.99 23.0156C302.371 23.0156 302.679 23.1328 302.913 23.3672C303.147 23.6016 303.265 23.9019 303.265 24.2681ZM309.417 38.8579C309.08 39.4146 308.677 39.9272 308.208 40.396C307.754 40.8501 307.249 41.2529 306.692 41.6045C306.15 41.9414 305.564 42.2051 304.935 42.3955C304.319 42.5859 303.682 42.6812 303.023 42.6812C302.203 42.6812 301.47 42.542 300.826 42.2637C300.196 41.9854 299.661 41.6045 299.222 41.1211C298.797 40.623 298.467 40.0444 298.233 39.3853C298.013 38.7114 297.903 37.979 297.903 37.188C297.903 36.3384 298.028 35.5327 298.277 34.771C298.526 34.0093 298.87 33.2988 299.31 32.6396C299.749 31.9658 300.262 31.3506 300.848 30.7939C301.448 30.2373 302.085 29.7393 302.759 29.2998L303.023 29.4976C302.305 30.3472 301.719 31.2993 301.265 32.354C300.826 33.4087 300.606 34.5073 300.606 35.6499C300.606 36.3091 300.679 36.9463 300.826 37.5615C300.987 38.1621 301.229 38.6968 301.551 39.1655C301.888 39.6343 302.312 40.0078 302.825 40.2861C303.338 40.5645 303.96 40.7036 304.693 40.7036C305.557 40.7036 306.377 40.5205 307.154 40.1543C307.945 39.7881 308.655 39.3267 309.285 38.77L309.417 38.8579ZM320.03 48.7456C320.03 49.9321 319.891 51.1406 319.612 52.3711C319.334 53.6162 318.895 54.7588 318.294 55.7988C317.693 56.8389 316.917 57.7178 315.965 58.4355C315.027 59.1533 313.892 59.6001 312.559 59.7759C312.427 59.8052 312.303 59.8271 312.186 59.8418C312.068 59.8564 311.937 59.8638 311.79 59.8638C310.984 59.8638 310.223 59.7026 309.505 59.3804C308.787 59.0581 308.157 58.6187 307.615 58.062C307.088 57.52 306.67 56.8828 306.363 56.1504C306.055 55.4326 305.901 54.6782 305.901 53.8872C305.901 53.0083 306.084 52.166 306.451 51.3604C306.802 50.5547 307.271 49.8076 307.857 49.1191C308.443 48.4453 309.102 47.8447 309.834 47.3174C310.582 46.8047 311.343 46.3945 312.12 46.0869L312.251 46.3726C310.831 47.1343 309.732 48.1816 308.956 49.5146C308.179 50.8477 307.791 52.3198 307.791 53.9312C307.791 54.5903 307.879 55.2275 308.055 55.8428C308.245 56.4727 308.523 57.022 308.89 57.4907C309.256 57.9595 309.71 58.333 310.252 58.6113C310.809 58.9043 311.446 59.0508 312.164 59.0508C313.174 59.0508 314.017 58.7871 314.69 58.2598C315.364 57.7324 315.899 57.0732 316.294 56.2822C316.705 55.4912 316.99 54.627 317.151 53.6895C317.327 52.7666 317.415 51.9023 317.415 51.0967C317.415 50.3936 317.371 49.7051 317.283 49.0312C317.195 48.3574 317.1 47.6836 316.998 47.0098C316.91 46.3506 316.822 45.6841 316.734 45.0103C316.646 44.3364 316.602 43.6479 316.602 42.9448C316.602 42.4468 316.617 41.9341 316.646 41.4067C316.69 40.8794 316.763 40.3447 316.866 39.8027C316.221 40.5645 315.474 41.2163 314.625 41.7583C313.79 42.2856 312.889 42.5493 311.922 42.5493C311.321 42.5493 310.779 42.4321 310.296 42.1978C309.827 41.978 309.424 41.6777 309.087 41.2969C308.765 40.916 308.516 40.4692 308.34 39.9565C308.179 39.4292 308.099 38.8799 308.099 38.3086C308.099 37.6494 308.201 36.9683 308.406 36.2651C308.626 35.5474 308.919 34.8589 309.285 34.1997C309.666 33.5259 310.113 32.896 310.625 32.3101C311.138 31.7095 311.695 31.1895 312.295 30.75C312.911 30.2959 313.555 29.9443 314.229 29.6953C314.903 29.4316 315.591 29.2998 316.294 29.2998C316.646 29.2998 316.998 29.3511 317.349 29.4536C317.715 29.5415 318.045 29.6807 318.338 29.8711C318.646 30.0615 318.887 30.3032 319.063 30.5962C319.253 30.8892 319.349 31.2407 319.349 31.6509C319.349 31.9438 319.283 32.2075 319.151 32.4419C319.019 32.6763 318.851 32.8887 318.646 33.0791C318.44 33.2549 318.213 33.416 317.964 33.5625C317.715 33.709 317.474 33.8335 317.239 33.936L317.151 33.6724C317.269 33.5405 317.349 33.3794 317.393 33.189C317.437 32.9985 317.459 32.8154 317.459 32.6396C317.459 32.376 317.415 32.1123 317.327 31.8486C317.254 31.5703 317.137 31.3213 316.976 31.1016C316.829 30.8672 316.639 30.6768 316.404 30.5303C316.17 30.3838 315.906 30.3105 315.613 30.3105C314.866 30.3105 314.192 30.5156 313.592 30.9258C312.991 31.3213 312.479 31.8267 312.054 32.4419C311.644 33.0571 311.321 33.731 311.087 34.4634C310.867 35.1812 310.757 35.8623 310.757 36.5068C310.757 36.9316 310.794 37.3638 310.867 37.8032C310.955 38.2427 311.094 38.6382 311.285 38.9897C311.475 39.3413 311.731 39.6343 312.054 39.8687C312.391 40.0884 312.815 40.1982 313.328 40.1982C314.119 40.1982 314.852 39.9932 315.525 39.583C316.199 39.1582 316.8 38.6602 317.327 38.0889C317.532 37.5029 317.796 36.9536 318.118 36.4409C318.455 35.9136 318.865 35.4595 319.349 35.0786L319.722 35.3423C319.385 35.8843 319.166 36.4995 319.063 37.188C318.96 37.8765 318.909 38.5503 318.909 39.2095C318.909 39.9858 318.968 40.7622 319.085 41.5386C319.202 42.3149 319.327 43.0986 319.458 43.8896C319.605 44.6807 319.737 45.479 319.854 46.2847C319.971 47.0903 320.03 47.9106 320.03 48.7456ZM341.124 38.77C340.875 39.2974 340.567 39.8247 340.201 40.3521C339.849 40.8647 339.454 41.3335 339.014 41.7583C338.575 42.1685 338.091 42.5054 337.564 42.769C337.037 43.0327 336.473 43.1646 335.872 43.1646C335.213 43.1646 334.642 42.9888 334.158 42.6372C333.675 42.3003 333.265 41.8535 332.928 41.2969C332.591 40.7256 332.312 40.0737 332.093 39.3413C331.873 38.6089 331.69 37.8545 331.543 37.0781C331.397 36.3018 331.272 35.5254 331.17 34.749C331.082 33.9727 330.994 33.2622 330.906 32.6177C330.438 33.2329 330.013 33.8848 329.632 34.5732C329.251 35.2617 328.885 35.9795 328.533 36.7266C328.182 37.459 327.837 38.2061 327.5 38.9678C327.164 39.7295 326.805 40.4839 326.424 41.231C326.336 41.3921 326.248 41.5679 326.16 41.7583C326.072 41.9341 325.97 42.0952 325.853 42.2417C325.735 42.4028 325.596 42.5347 325.435 42.6372C325.274 42.7397 325.083 42.791 324.864 42.791C324.659 42.791 324.483 42.7544 324.336 42.6812C324.205 42.6079 324.087 42.5127 323.985 42.3955C323.897 42.293 323.824 42.1758 323.765 42.0439C323.721 41.9121 323.685 41.7876 323.655 41.6704C323.479 41.0405 323.318 40.2495 323.172 39.2974C323.04 38.3452 322.923 37.3271 322.82 36.2432C322.718 35.1592 322.637 34.0605 322.579 32.9473C322.535 31.8193 322.513 30.7793 322.513 29.8271C322.513 28.4648 322.601 27.0659 322.776 25.6304C322.952 24.1802 323.223 22.7666 323.589 21.3896C323.97 20.0127 324.446 18.7163 325.018 17.5005C325.604 16.27 326.292 15.1934 327.083 14.2705C327.874 13.3477 328.775 12.6152 329.786 12.0732C330.811 11.5312 331.954 11.2603 333.213 11.2603C334.048 11.2603 334.708 11.5093 335.191 12.0073C335.674 12.4907 335.916 13.1865 335.916 14.0947C335.916 15.457 335.674 16.7681 335.191 18.0278C334.722 19.2729 334.114 20.4668 333.367 21.6094C332.635 22.752 331.814 23.8359 330.906 24.8613C330.013 25.8721 329.148 26.8096 328.313 27.6738L328.028 27.4541C328.394 27.0439 328.782 26.5386 329.192 25.938C329.617 25.3228 330.027 24.6636 330.423 23.9604C330.833 23.2427 331.221 22.4956 331.587 21.7192C331.954 20.9282 332.276 20.1519 332.554 19.3901C332.833 18.6284 333.052 17.896 333.213 17.1929C333.375 16.4751 333.455 15.8232 333.455 15.2373C333.455 14.9297 333.426 14.6367 333.367 14.3584C333.309 14.0801 333.206 13.8384 333.06 13.6333C332.913 13.4136 332.723 13.2451 332.488 13.1279C332.269 12.9961 331.998 12.9302 331.675 12.9302C331.031 12.9302 330.423 13.1792 329.852 13.6772C329.295 14.1753 328.782 14.8491 328.313 15.6987C327.845 16.5337 327.427 17.5078 327.061 18.6211C326.709 19.7344 326.402 20.8989 326.138 22.1147C325.889 23.3306 325.699 24.561 325.567 25.8062C325.435 27.0513 325.369 28.2378 325.369 29.3657C325.369 30.1274 325.369 30.8965 325.369 31.6729C325.369 32.4492 325.384 33.2622 325.413 34.1118C325.457 34.9614 325.523 35.8623 325.611 36.8145C325.713 37.7666 325.853 38.7993 326.028 39.9126C326.673 38.2427 327.354 36.6094 328.072 35.0127C328.79 33.4014 329.566 31.9292 330.401 30.5962C330.518 30.4058 330.635 30.2153 330.752 30.0249C330.884 29.8345 331.023 29.666 331.17 29.5195C331.316 29.3584 331.478 29.2266 331.653 29.124C331.829 29.0215 332.02 28.9702 332.225 28.9702C332.474 28.9702 332.671 29.0435 332.818 29.1899C332.964 29.3218 333.082 29.4902 333.169 29.6953C333.257 29.9004 333.316 30.1201 333.345 30.3545C333.389 30.5889 333.426 30.8013 333.455 30.9917C333.514 31.4165 333.58 31.9658 333.653 32.6396C333.726 33.3135 333.814 34.0386 333.917 34.8149C334.019 35.5767 334.144 36.3457 334.29 37.1221C334.451 37.8984 334.649 38.6016 334.883 39.2314C335.132 39.8467 335.425 40.3521 335.762 40.7476C336.099 41.1431 336.502 41.3408 336.971 41.3408C337.352 41.3408 337.732 41.2603 338.113 41.0991C338.494 40.938 338.86 40.7329 339.212 40.4839C339.563 40.2349 339.886 39.9492 340.179 39.627C340.486 39.3047 340.743 38.9897 340.948 38.6821L341.124 38.77ZM354.593 38.8579C354.271 39.3999 353.89 39.9053 353.45 40.374C353.025 40.8428 352.549 41.2529 352.022 41.6045C351.509 41.9561 350.953 42.2271 350.352 42.4175C349.751 42.6226 349.129 42.7251 348.484 42.7251C347.532 42.7251 346.69 42.564 345.958 42.2417C345.24 41.9194 344.617 41.4873 344.09 40.9453C343.562 40.3887 343.123 39.7441 342.771 39.0117C342.42 38.2793 342.142 37.5176 341.937 36.7266C341.731 35.9209 341.585 35.1006 341.497 34.2656C341.409 33.4307 341.365 32.6323 341.365 31.8706C341.365 31.1675 341.395 30.4497 341.453 29.7173C341.512 28.9702 341.6 28.2085 341.717 27.4321C341.263 27.4468 340.816 27.4541 340.376 27.4541C339.952 27.4541 339.527 27.4541 339.102 27.4541C338.824 27.4541 338.509 27.4468 338.157 27.4321C337.806 27.4175 337.476 27.3589 337.168 27.2563C336.861 27.1538 336.604 27 336.399 26.7949C336.194 26.5898 336.092 26.2896 336.092 25.894C336.092 25.6743 336.136 25.4985 336.224 25.3667C336.297 25.2349 336.407 25.1396 336.553 25.0811C336.685 25.0078 336.846 24.9639 337.037 24.9492C337.212 24.9199 337.396 24.9053 337.586 24.9053C337.806 24.9053 338.326 24.9419 339.146 25.0151C339.966 25.0884 340.955 25.1689 342.112 25.2568C342.479 23.5283 342.947 21.8291 343.519 20.1592C344.104 18.4893 344.764 16.9658 345.496 15.5889H345.804C345.335 17.1855 344.917 18.7969 344.551 20.4229C344.2 22.0488 343.936 23.6968 343.76 25.3667C344.83 25.4399 345.928 25.5059 347.056 25.5645C348.199 25.6084 349.312 25.6304 350.396 25.6304C351.993 25.6304 353.289 25.6157 354.285 25.5864C355.281 25.5571 356.065 25.5205 356.636 25.4766C357.31 25.418 357.815 25.3594 358.152 25.3008L358.24 25.6743C357.361 25.8794 356.358 26.0771 355.23 26.2676C354.102 26.4434 352.901 26.6045 351.626 26.751C350.352 26.8828 349.034 27 347.671 27.1025C346.309 27.2051 344.954 27.2856 343.606 27.3442C343.577 27.6372 343.562 27.9375 343.562 28.2451C343.562 28.5381 343.562 28.8311 343.562 29.124C343.562 29.8271 343.592 30.6035 343.65 31.4531C343.724 32.3027 343.848 33.1597 344.024 34.0239C344.2 34.8735 344.434 35.7085 344.727 36.5288C345.035 37.3345 345.43 38.0522 345.914 38.6821C346.412 39.2974 347.005 39.7954 347.693 40.1763C348.382 40.5571 349.195 40.7476 350.132 40.7476C350.997 40.7476 351.773 40.5571 352.461 40.1763C353.165 39.7954 353.831 39.3267 354.461 38.77L354.593 38.8579Z" fill="#DCCA87"/>
<g clip-path="url(#clip0_233_321)">
<path d="M13.125 0C6.91125 0 1.875 5.87625 1.875 13.125C1.875 19.3312 5.56875 24.5325 10.53 25.8975L8.66625 56.2575C8.63146 56.7392 8.697 57.2229 8.85871 57.678C9.02042 58.133 9.27479 58.5496 9.60573 58.9013C9.93668 59.2531 10.337 59.5323 10.7814 59.7214C11.2258 59.9106 11.7046 60.0054 12.1875 60H14.0625C16.125 60 17.7075 58.3162 17.5838 56.2575L15.72 25.8975C20.6813 24.5288 24.375 19.3312 24.375 13.125C24.375 5.87625 19.3388 0 13.125 0ZM50.9363 0L47.8125 18.75H45.4688L43.905 0H42.3413L40.7775 18.75H38.4338L35.31 0H33.7463V24.375C33.7463 24.8723 33.9438 25.3492 34.2954 25.7008C34.6471 26.0525 35.124 26.25 35.6213 26.25H40.5037L38.6625 56.2575C38.6277 56.7392 38.6932 57.2229 38.855 57.678C39.0167 58.133 39.271 58.5496 39.602 58.9013C39.9329 59.2531 40.3333 59.5323 40.7776 59.7214C41.222 59.9106 41.7008 60.0054 42.1838 60H44.0588C46.1213 60 47.7038 58.3162 47.58 56.2575L45.7388 26.25H50.6213C51.1185 26.25 51.5954 26.0525 51.9471 25.7008C52.2987 25.3492 52.4963 24.8723 52.4963 24.375V0H50.9325H50.9363Z" fill="#DCCA87"/>
</g>
<defs>
<clipPath id="clip0_233_321">
<rect width="60" height="60" fill="white"/>
</clipPath>
</defs>
</svg>
