<svg width="64" height="64" viewBox="0 0 64 64" fill="none" xmlns="http://www.w3.org/2000/svg">
<path d="M59.5951 35.879C63.4261 28.581 55.6391 23.52 45.4581 21.038C46.2241 19.297 46.4461 17.018 44.2861 14.842C41.5161 12.057 43.3571 8 43.3571 8C43.3571 8 37.5431 13.363 41.2141 17.061C42.5681 18.424 43.2731 19.621 43.6101 20.622C40.7995 20.0427 37.9536 19.6505 35.0911 19.448C35.9461 17.124 36.0291 14.205 33.3351 11.41C29.6471 7.579 32.1031 2 32.1031 2C32.1031 2 24.3501 9.374 29.2451 14.458C31.0321 16.312 31.9731 17.944 32.4291 19.312C29.3951 19.221 26.4751 19.354 23.8811 19.717C24.1901 18.222 23.9321 16.503 22.2831 14.843C19.5131 12.058 21.3551 8 21.3551 8C21.3551 8 15.5401 13.363 19.2121 17.061C20.3621 18.219 21.0361 19.253 21.4231 20.154C20.9851 20.25 20.5601 20.354 20.1511 20.467C7.50908 19.284 1.99508 21.896 4.51408 27.02C0.118085 31.416 1.77008 36.433 7.27108 40.272C10.1411 52.093 10.8801 62 32.4961 62C51.7841 62 54.4491 54.11 56.8381 44.012C64.0061 42.585 62.4791 39.149 59.5951 35.879V35.879ZM57.8081 34.698C55.4071 39.818 44.9871 43.672 32.4961 43.672C20.0061 43.672 9.58608 39.818 7.18408 34.698C7.13308 34.546 7.08408 34.388 7.03508 34.234C8.17908 31.332 11.8971 28.814 17.1191 27.128C15.8921 28.314 15.6371 30.085 18.8661 30.706C19.7901 30.884 22.3271 30.268 21.2181 27.12C21.0631 26.68 20.8101 26.385 20.4991 26.207C24.0871 25.386 28.1601 24.913 32.4961 24.913C32.9821 24.913 33.4591 24.93 33.9381 24.941C31.4361 25.829 29.3951 28.565 34.5041 29.372C35.6321 29.55 38.7291 28.934 37.3751 25.786C37.2568 25.5054 37.0672 25.2607 36.8251 25.076C41.6121 25.428 45.9491 26.35 49.4551 27.679C46.3721 27.507 42.9521 29.407 48.4291 32.082C49.6041 32.656 53.1741 33.183 52.6831 29.707C52.6476 29.4559 52.5589 29.2152 52.4231 29.001C55.2261 30.478 57.1811 32.269 57.9561 34.234L57.8081 34.698Z" fill="black"/>
<path d="M25.8378 36.8408C29.0708 36.8408 31.2268 33.9178 32.9158 32.7738C35.2758 31.1738 41.2098 30.5498 35.9838 30.4238C31.0268 30.3048 24.9068 34.3288 20.8168 34.0518C14.0448 33.5918 20.9808 36.8408 25.8378 36.8408V36.8408ZM32.8238 42.8128C33.9658 43.0328 37.1048 42.2708 35.7318 38.3778C34.1808 33.9728 24.7918 41.2668 32.8238 42.8128ZM15.0478 33.1778C13.9568 31.6378 12.3748 29.6848 11.7198 30.7018C10.8248 32.0928 10.5428 34.8918 11.1928 35.0158C16.2888 35.9928 15.9318 34.4248 15.0478 33.1778V33.1778ZM44.6728 33.8018C45.5918 32.6638 43.7568 29.9248 42.5788 30.4038C40.7348 31.1538 39.6718 30.6458 38.8618 31.7838C36.9648 34.4488 43.4238 35.3468 44.6728 33.8018ZM44.0988 37.0628C42.7768 36.4798 43.0888 38.4328 41.1358 36.8658C39.7378 35.7438 36.7298 38.5738 38.7138 40.4958C40.9218 42.6348 41.5098 40.6018 42.4378 40.7728C44.3238 41.1198 47.5668 38.5928 44.0988 37.0628ZM22.1168 37.7308C21.4278 37.0528 20.5038 37.8708 19.9818 38.8688C19.4648 38.6148 19.0438 38.5558 19.0438 38.5558C18.6488 37.4298 17.4738 36.6578 17.4738 36.6578C17.4738 36.6578 17.5808 37.8288 17.7358 38.3998C16.4378 37.9388 16.3978 35.6188 16.3978 35.6188C16.3978 35.6188 15.5268 36.1398 15.6058 37.0248C14.1768 35.8718 12.9598 36.4108 12.9598 36.4108C12.9598 36.4108 14.7728 37.4308 15.0228 38.1188C14.0048 38.1978 13.4108 38.5498 13.0648 39.3688C13.0658 39.3758 15.0768 38.4118 16.5648 39.1078C15.9778 39.5878 16.2698 40.7868 16.2698 40.7868C17.6548 39.3188 18.7608 39.4758 19.6458 39.7388C19.5388 40.1878 19.5458 40.5978 19.7358 40.8468C21.2708 42.8648 26.6178 42.4108 28.0538 40.9188C29.7928 39.1138 24.9608 40.5298 22.1168 37.7308" fill="black"/>
<path d="M25.8932 30.1302C25.4382 31.0442 25.4352 31.7342 25.9612 32.4522C25.9682 32.4542 26.1732 30.2342 27.5342 29.3142C27.6452 30.0642 28.8232 30.4282 28.8232 30.4282C27.8812 27.0922 30.6312 26.9182 30.6182 25.7212C29.1602 25.8442 28.3322 26.9042 28.3322 26.9042C27.1632 26.6652 25.8962 27.2762 25.8962 27.2762C25.8962 27.2762 26.9572 27.7852 27.5262 27.9462C26.4642 28.8232 24.4522 27.6662 24.4522 27.6662C24.4522 27.6662 24.4522 28.6822 25.2522 29.0672C23.5292 29.7022 23.3672 31.0222 23.3672 31.0222C23.3672 31.0222 25.1732 29.9912 25.8932 30.1302V30.1302ZM51.4442 34.6862C51.8582 33.9002 51.2542 33.0832 51.2542 33.0832C51.2542 33.0832 50.3252 35.2102 48.9502 35.1372C49.3122 34.6692 49.8622 33.6292 49.8622 33.6292C49.8622 33.6292 48.4802 33.8922 47.6822 34.7792C47.6822 34.7792 46.3862 34.4202 45.1422 35.1882C45.8442 36.1582 48.1582 34.6612 49.3852 37.9032C49.3852 37.9032 50.1152 36.9102 49.7582 36.2412C51.4002 36.1702 52.8862 37.8322 52.8912 37.8262C52.8852 36.9362 52.4732 36.3842 51.5622 35.9202C52.0582 35.3812 54.1242 35.1362 54.1242 35.1362C54.1242 35.1362 53.2082 34.1712 51.4442 34.6862" fill="black"/>
</svg>
