<svg width="64" height="64" viewBox="0 0 64 64" fill="none" xmlns="http://www.w3.org/2000/svg">
<path d="M39.8429 28.281C39.2609 26.549 38.3729 25.929 37.3459 25.929C36.0939 25.929 34.6339 26.848 33.2609 27.8C32.4439 28.368 29.2809 31.861 27.5559 31.861C27.3582 31.8664 27.1639 31.809 27.0009 31.697C25.3169 30.505 27.4269 25.311 27.4269 22.82C27.4269 20.409 26.9889 19.488 26.3179 19.488C24.4629 19.488 20.8289 26.551 19.8159 28.589C19.5299 29.164 19.1309 29.391 18.6679 29.391C17.0489 29.391 14.6409 26.606 13.5349 26.179C13.3699 26.1121 13.1939 26.0761 13.0159 26.073C11.1679 26.073 11.2079 30.67 11.2359 31.89C12.2459 31.614 13.1929 31.444 14.0209 31.444C16.1079 31.444 17.4349 32.525 17.0889 35.698C17.0109 36.411 16.5599 38.683 17.2979 39.184C17.4163 39.2611 17.5556 39.2998 17.6969 39.295C18.5479 39.295 19.8959 38.246 20.3969 37.926C21.0709 37.494 21.7779 37.178 22.3759 37.178C23.0959 37.178 23.6579 37.635 23.8189 38.9C23.9149 39.649 23.5479 42.499 24.2819 42.954C24.3896 43.0189 24.5132 43.0525 24.6389 43.051C25.9939 43.051 28.3069 39.665 29.3539 39.277C29.8454 39.095 30.3657 39.0025 30.8899 39.004C32.2829 39.004 33.6079 39.619 34.9629 40.139C35.1909 40.227 35.3769 40.265 35.5279 40.265C36.3469 40.265 36.1089 39.128 35.4079 38.401C34.3869 37.337 32.7669 37.804 31.6309 37.042C30.1879 36.074 32.1969 34.129 32.9769 33.552C33.9079 32.862 35.9719 31.753 37.6189 31.753C38.3819 31.753 39.0549 31.991 39.4829 32.617C40.2919 33.8 38.9459 35.294 39.2859 36.622C39.4289 37.173 39.7749 37.363 40.1849 37.363C41.0579 37.363 42.2149 36.501 42.2949 36.419C42.827 35.8662 43.3996 35.3538 44.0079 34.886C40.9679 34.213 40.7099 30.867 39.8429 28.281" fill="black"/>
<path d="M14.9164 25.7889C14.9164 25.7889 17.5454 28.1079 18.6684 28.1079C18.8834 28.1079 19.0444 28.0229 19.1194 27.8169C20.7354 23.3919 24.1524 18.3349 26.3834 18.3349C27.3564 18.3349 28.1034 19.2979 28.3754 21.6979C28.7274 24.8049 26.5784 29.5139 27.6114 30.5869C27.6339 30.6096 27.6609 30.6274 27.6907 30.6392C27.7205 30.6509 27.7524 30.6562 27.7844 30.6549C28.9454 30.6549 33.5324 24.7809 37.4584 24.7809C37.7605 24.7801 38.0616 24.8174 38.3544 24.8919C41.8914 25.7989 40.3584 31.8299 43.2294 33.5529C43.7048 33.8424 44.2498 33.9976 44.8064 34.0019C45.8644 34.0019 46.8304 33.3989 47.0614 32.1519C47.6444 29.0039 37.6464 22.9019 43.0554 22.9019C43.8314 22.9019 44.9244 23.0269 46.4104 23.3049C47.2954 17.2409 46.9864 15.5599 46.1944 15.5599C45.2914 15.5599 43.7594 17.7429 42.6444 18.1189C42.6122 18.1297 42.5784 18.1354 42.5444 18.1359C41.9074 18.1359 41.9294 15.8419 40.8394 15.8419C40.1354 15.8419 38.9684 16.7989 36.8624 19.9449C35.7764 21.5679 34.9634 22.2099 34.3214 22.2099C31.8794 22.2099 31.9484 12.8689 29.0184 12.8689C28.4264 12.8689 27.7124 13.2499 26.8304 14.1649C25.4764 15.5709 24.2124 16.0689 23.0294 16.0689C20.1484 16.0689 17.7614 13.1099 15.8044 13.1099C15.0324 13.1099 14.3254 13.5709 13.6834 14.8589C12.3544 17.5299 16.8544 17.3919 14.9164 25.7889V25.7889ZM18.3594 26.9909C17.8334 26.7549 16.8994 26.1229 16.0234 25.4029C16.1854 24.6099 16.2854 23.8979 16.3434 23.2419C16.5904 22.8279 16.8944 22.4199 17.2654 22.0419C18.7764 20.5009 20.7124 20.0139 21.6614 20.9039C20.3084 22.7689 19.1174 25.0519 18.3594 26.9909V26.9909ZM40.5704 23.0169C40.0764 24.1859 41.0374 25.4199 42.5084 27.0329C42.4058 27.145 42.2864 27.2405 42.1544 27.3159C42.0143 27.3936 41.8622 27.4473 41.7044 27.4749C41.2364 25.8949 40.4514 24.3779 38.5984 23.9029C38.3261 23.8364 38.0483 23.7953 37.7684 23.7799C37.2664 22.1479 37.4994 20.6149 38.4504 20.0849C39.4984 19.4979 41.0264 20.3359 42.0694 21.9619C41.4884 22.0729 40.8564 22.3409 40.5704 23.0169" fill="black"/>
<path d="M48.0065 32.1739C47.7875 33.6049 49.8675 33.8609 48.8735 36.2049C48.3635 37.4039 44.0445 40.1679 44.3625 40.7729C44.8335 41.6579 45.3995 42.0019 45.9725 42.0019C47.1065 42.0019 48.2615 40.6559 48.7265 39.4899C49.3355 37.9649 49.4925 33.9619 50.9765 33.2199C51.2275 33.0929 51.4755 33.0369 51.7205 33.0369C53.1855 33.0369 54.5545 35.0179 55.8745 35.2859C56.1965 33.8519 55.9665 32.3639 56.2945 30.9219C50.7225 30.8519 59.3905 23.2369 54.4375 20.1299C54.1705 19.9629 53.9465 19.8879 53.7505 19.8889C52.1915 19.8889 52.5545 24.6629 48.6155 24.6629C48.3015 24.6629 47.9585 24.6319 47.5855 24.5659C46.1445 24.3119 45.1495 24.1939 44.4985 24.1939C40.7045 24.1959 48.6215 28.1869 48.0065 32.1739" fill="black"/>
<path d="M57.877 24.693C58.0191 23.8341 58.0265 22.9583 57.899 22.097C57.541 19.698 55.666 17.746 53.72 17.745C53.055 17.745 51.463 18.022 50.71 20.385C50.2036 20.1735 49.6925 19.9734 49.177 19.785C49.622 16.79 49.455 14.737 48.656 13.688C48.4633 13.4256 48.2113 13.2123 47.9206 13.0657C47.6299 12.919 47.3086 12.8431 46.983 12.844C45.937 12.844 44.762 13.544 43.302 15.041L43.249 14.899C42.939 14.061 42.421 12.659 41.031 12.659C40.081 12.659 38.823 13.245 36.179 17.099C35.4122 17.0426 34.6444 17.0016 33.876 16.976L33.734 16.46C32.909 13.431 31.973 9.99905 29.336 9.99805H29.335C28.26 9.99805 27.129 10.631 25.876 11.932C24.943 12.902 24.02 13.373 23.053 13.373C21.874 13.373 20.667 12.697 19.499 12.044C18.318 11.384 17.098 10.701 15.836 10.701C14.34 10.701 13.124 11.618 12.118 13.505C10.969 15.661 11.608 17.085 12.226 18.463C12.496 19.064 12.779 19.701 12.98 20.483C6.283 23.359 2 27.714 2 32.597C2 46.13 15.432 62 32 62C48.569 62 62 46.13 62 32.597C62 29.711 60.482 27.015 57.877 24.693ZM32 59.961C19.389 59.961 8.785 50.065 5.258 39.702C10.217 44.791 20.326 48.278 32 48.278C43.674 48.278 53.781 44.791 58.74 39.703C55.213 50.064 44.61 59.961 32 59.961ZM43.135 42.475C42.894 43.233 42.145 44.385 41.216 45.196C39.782 46.447 38.034 46.716 37.201 45.842C36.501 45.104 36.616 43.733 37.42 42.45C39.066 39.822 41.426 39.246 42.45 39.766C42.43 39.838 42.402 39.907 42.388 39.984C42.246 40.783 42.503 41.621 43.135 42.475V42.475ZM58.503 29.627C57.524 29.627 57.053 32.339 56.983 34.044C56.921 35.547 56.487 36.048 55.866 36.048C54.972 36.048 53.69 35.012 52.571 34.426C52.213 34.238 51.938 34.155 51.722 34.155C51.081 34.155 50.964 34.904 50.744 35.964C50.373 37.753 49.931 39.609 48.961 41.152C48.249 42.285 47.148 43.073 46.045 43.073C45.32 43.073 44.594 42.733 43.976 41.928C41.546 38.77 46.884 38.124 47.948 35.959C48.564 34.707 48.367 34.271 47.803 34.271C46.693 34.271 44.162 35.965 43.64 36.444C42.718 37.287 41.659 38.529 40.363 38.529C40.144 38.529 39.917 38.493 39.683 38.414C38.308 37.95 38.115 36.22 38.406 34.935C38.648 33.861 39.205 32.896 37.769 32.841C37.7184 32.8391 37.6677 32.8381 37.617 32.838C36.692 32.838 35.747 33.142 34.908 33.522C33.89 33.984 32.482 34.81 32.113 36.023C31.998 36.396 34.467 36.785 34.851 36.933C36.775 37.685 37.716 41.306 35.703 41.306C35.443 41.306 35.134 41.245 34.771 41.113C33.509 40.642 32.24 39.976 30.919 39.976C30.485 39.976 30.046 40.048 29.601 40.223C28.679 40.585 28.175 41.618 27.449 42.265C26.375 43.229 25.425 43.747 24.679 43.747C23.651 43.747 23.011 42.763 22.97 40.602C22.934 38.846 22.597 38.277 22.052 38.277C21.08 38.277 19.448 40.092 17.695 40.226C17.644 40.229 17.595 40.231 17.548 40.231C15.209 40.231 16.119 35.784 16.301 34.413C16.5 32.918 15.598 32.387 14.209 32.387C12.648 32.387 10.477 33.057 8.565 33.784C8.657 33.866 8.753 33.938 8.841 34.028C10.591 35.774 11.166 38.077 10.129 39.168C9.09 40.257 6.831 39.724 5.083 37.976C3.335 36.228 2.758 33.925 3.797 32.835C4.684 31.898 6.063 32.213 7.236 32.838C8.769 32.323 10.324 31.874 10.288 31.15C10.015 25.674 11.568 24.652 12.767 24.653C13.224 24.6644 13.6711 24.7892 14.068 25.016C15.15 18.047 11.091 17.574 12.998 13.995C13.901 12.302 14.844 11.724 15.838 11.724C17.975 11.724 20.346 14.395 23.055 14.395C24.174 14.395 25.351 13.938 26.592 12.649C27.705 11.493 28.601 11.02 29.338 11.02C32.635 11.021 32.723 20.49 34.608 20.49C34.97 20.49 35.399 20.141 35.928 19.309C38.693 14.967 40.164 13.68 41.032 13.68C42.298 13.68 42.281 16.418 43.118 16.418C43.29 16.418 43.5 16.301 43.764 16.02C45.153 14.541 46.222 13.864 46.984 13.864C48.781 13.864 48.87 17.625 47.406 23.484C47.406 23.484 47.733 23.567 48.212 23.567C49.233 23.567 50.94 23.192 51.608 20.848C52.029 19.372 52.848 18.766 53.722 18.766C55.102 18.766 56.617 20.276 56.912 22.251C57.449 25.858 55.07 28.413 55.256 29.501C55.288 29.694 55.383 29.77 55.525 29.77C56.058 29.77 57.255 28.685 58.3 28.685C59.079 28.685 59.775 29.29 60.043 31.404C59.431 30.123 58.921 29.627 58.503 29.627" fill="black"/>
</svg>
