<svg width="64" height="64" viewBox="0 0 64 64" fill="none" xmlns="http://www.w3.org/2000/svg">
<path d="M24.7522 47.1071L24.9172 48.4961C23.9807 48.3397 23.0487 48.1576 22.1222 47.9501L22.1562 48.1751C23.3754 48.447 24.6038 48.6754 25.8392 48.8601L25.6452 47.0301C24.3777 46.8426 23.1175 46.6088 21.8672 46.3291C21.8792 46.4021 21.8892 46.4761 21.9022 46.5521C22.8472 46.7621 23.7962 46.9491 24.7522 47.1071V47.1071ZM29.5492 47.6801L29.6222 49.0571C28.6758 48.9877 27.7314 48.8927 26.7902 48.7721L26.8102 48.9921C28.0492 49.1531 29.2922 49.2651 30.5392 49.3351L30.4652 47.5201C29.1864 47.4495 27.9105 47.3325 26.6402 47.1691C26.6482 47.2411 26.6552 47.3161 26.6612 47.3891C27.6212 47.5121 28.5832 47.6081 29.5492 47.6801V47.6801ZM34.3802 47.8091L34.3592 49.1841C33.4112 49.2041 32.4612 49.1941 31.5112 49.1611C31.5152 49.2331 31.5172 49.3071 31.5192 49.3801C32.7652 49.4261 34.0172 49.4261 35.2632 49.3801C35.2812 48.7761 35.2962 48.1701 35.3132 47.5651C34.0326 47.6121 32.7508 47.6121 31.4702 47.5651L31.4772 47.7841C32.4432 47.8191 33.4112 47.8271 34.3802 47.8091ZM40.1422 47.1681C38.8712 47.3301 37.5952 47.4481 36.3182 47.5191L36.3072 47.7401C37.2738 47.6858 38.2389 47.6055 39.2012 47.4991L39.0892 48.8811C38.1462 48.9841 37.2002 49.0641 36.2532 49.1161L36.2432 49.3351C37.49 49.2668 38.7338 49.1524 39.9722 48.9921C40.0272 48.3841 40.0832 47.7761 40.1422 47.1681V47.1681ZM44.9152 46.3281C43.6652 46.608 42.4054 46.8418 41.1382 47.0291C41.1302 47.1031 41.1212 47.1761 41.1152 47.2521C42.0717 47.1076 43.0243 46.9385 43.9722 46.7451L43.7702 48.1411C42.8392 48.3311 41.9052 48.4971 40.9662 48.6361C40.9582 48.7081 40.9492 48.7831 40.9422 48.8591C42.1777 48.6749 43.4061 48.4464 44.6252 48.1741L44.9152 46.3281V46.3281ZM22.2552 48.8011C23.1716 49.0051 24.0932 49.1845 25.0192 49.3391L25.1842 50.7281C24.2765 50.5771 23.3732 50.401 22.4752 50.2001C22.4879 50.274 22.4996 50.348 22.5102 50.4221C23.6922 50.6861 24.8822 50.9081 26.0772 51.0861C26.0132 50.4751 25.9472 49.8671 25.8822 49.2581C24.6532 49.0765 23.4313 48.8494 22.2192 48.5771C22.2332 48.6511 22.2442 48.7271 22.2552 48.8011ZM26.8692 49.6121C27.8002 49.7311 28.7322 49.8251 29.6672 49.8941L29.7422 51.2691C28.8252 51.2033 27.9101 51.1119 26.9982 50.9951L27.0182 51.2141C28.2182 51.3691 29.4242 51.4801 30.6292 51.5471C30.6062 50.9421 30.5802 50.3351 30.5562 49.7301C29.3164 49.6629 28.0795 49.5494 26.8482 49.3901L26.8692 49.6121V49.6121ZM31.5292 49.7741L31.5352 49.9951C32.4732 50.0291 33.4112 50.0381 34.3492 50.0191L34.3302 51.3951C33.4102 51.4121 32.4912 51.4041 31.5712 51.3711L31.5782 51.5901C32.7852 51.6331 33.9962 51.6331 35.2042 51.5901L35.2532 49.7751C34.0122 49.8193 32.7701 49.819 31.5292 49.7741V49.7741ZM39.9342 49.3901C38.7031 49.5489 37.4666 49.6623 36.2272 49.7301C36.2232 49.8031 36.2212 49.8771 36.2182 49.9511C37.1544 49.8992 38.0891 49.8221 39.0212 49.7201L38.9092 51.1011C37.9961 51.2024 37.0805 51.278 36.1632 51.3281C36.1582 51.4021 36.1562 51.4741 36.1532 51.5491C37.3605 51.4822 38.565 51.3711 39.7642 51.2161C39.8192 50.6061 39.8772 49.9971 39.9342 49.3901V49.3901ZM44.5622 48.5761C43.3492 48.8471 42.1272 49.0761 40.8992 49.2571C40.8908 49.3307 40.8835 49.4044 40.8772 49.4781C41.8049 49.3416 42.7286 49.1788 43.6472 48.9901L43.4452 50.3851C42.5442 50.5711 41.6382 50.7311 40.7282 50.8651C40.7222 50.9381 40.7132 51.0111 40.7062 51.0861C41.9012 50.9081 43.0912 50.6861 44.2722 50.4221C44.3672 49.8071 44.4642 49.1911 44.5622 48.5761V48.5761ZM22.6102 51.0461C23.4972 51.2451 24.3882 51.4191 25.2842 51.5671C25.3412 52.0321 25.3952 52.4961 25.4502 52.9591C24.5721 52.8138 23.6984 52.6431 22.8302 52.4471C22.8432 52.5221 22.8542 52.5961 22.8652 52.6701C24.007 52.9275 25.1581 53.1413 26.3162 53.3111L26.1222 51.4851C24.9318 51.309 23.7484 51.0892 22.5742 50.8261C22.5872 50.8991 22.5972 50.9731 22.6102 51.0461V51.0461ZM27.0772 51.8321C27.9762 51.9481 28.8802 52.0401 29.7862 52.1051L29.8602 53.4841C28.9728 53.4208 28.0874 53.3314 27.2052 53.2161C27.2132 53.2891 27.2192 53.3641 27.2262 53.4371C28.3852 53.5861 29.5512 53.6931 30.7192 53.7571L30.6452 51.9441C29.4453 51.8767 28.2482 51.7663 27.0562 51.6131C27.0622 51.6871 27.0682 51.7601 27.0772 51.8321V51.8321ZM31.5882 51.9871L31.5932 52.2041C32.5002 52.2361 33.4102 52.2451 34.3172 52.2281C34.3102 52.6861 34.3052 53.1461 34.2992 53.6041C33.4082 53.6211 32.5182 53.6131 31.6302 53.5821L31.6352 53.8011C32.8062 53.8421 33.9762 53.8421 35.1462 53.8011C35.1612 53.1961 35.1762 52.5911 35.1942 51.9881C33.9926 52.0303 32.7898 52.03 31.5882 51.9871V51.9871ZM39.7262 51.6131C38.5339 51.7665 37.3364 51.8769 36.1362 51.9441L36.1272 52.1611C37.0342 52.1111 37.9392 52.0341 38.8432 51.9351L38.7312 53.3181C37.8471 53.4168 36.9604 53.4905 36.0722 53.5391L36.0632 53.7581C37.2307 53.694 38.3955 53.5873 39.5552 53.4381L39.7262 51.6131ZM44.2072 50.8251C43.0334 51.0887 41.8503 51.3085 40.6602 51.4841C40.6542 51.5571 40.6452 51.6301 40.6372 51.7031C41.5363 51.5712 42.4314 51.4128 43.3212 51.2281L43.1172 52.6281C42.2472 52.8051 41.3702 52.9601 40.4902 53.0911C40.4815 53.164 40.4739 53.237 40.4672 53.3101C41.6249 53.1406 42.7758 52.9268 43.9172 52.6691C44.0142 52.0551 44.1092 51.4411 44.2072 50.8251V50.8251ZM22.9642 53.2961C23.8212 53.4881 24.6842 53.6561 25.5512 53.8011L25.7162 55.1901C24.8679 55.0485 24.0235 54.8838 23.1842 54.6961L23.2192 54.9211C24.3232 55.1691 25.4352 55.3751 26.5532 55.5411L26.3592 53.7121C25.208 53.5424 24.0635 53.3295 22.9282 53.0741C22.9412 53.148 22.9532 53.222 22.9642 53.2961V53.2961ZM27.2842 54.0571C28.1552 54.1691 29.0292 54.2571 29.9052 54.3211C29.9302 54.7781 29.9542 55.2381 29.9772 55.6981C29.1203 55.6354 28.2653 55.5487 27.4132 55.4381C27.4192 55.5151 27.4272 55.5871 27.4342 55.6631C28.5552 55.8065 29.6809 55.9099 30.8092 55.9731L30.7352 54.1551C29.574 54.0923 28.4155 53.9866 27.2622 53.8381C27.2692 53.9101 27.2782 53.9831 27.2842 54.0571V54.0571ZM31.6472 54.1961L31.6532 54.4131C32.5311 54.4466 33.4098 54.4546 34.2882 54.4371C34.2812 54.8951 34.2762 55.3531 34.2682 55.8131C33.4092 55.8301 32.5482 55.8201 31.6882 55.7911L31.6942 56.0121C32.8242 56.0531 33.9552 56.0531 35.0862 56.0121L35.1332 54.1971C33.9742 54.2371 32.8082 54.2371 31.6472 54.1961V54.1961ZM39.5192 53.8361C38.3658 53.9848 37.2074 54.0905 36.0462 54.1531L36.0372 54.3721C36.9144 54.3253 37.7901 54.2529 38.6632 54.1551C38.6252 54.6151 38.5882 55.0771 38.5522 55.5371C37.6982 55.6321 36.8402 55.7011 35.9822 55.7501L35.9732 55.9721C37.1019 55.9093 38.2279 55.8059 39.3492 55.6621C39.4042 55.0531 39.4622 54.4451 39.5192 53.8361ZM43.8532 53.0731C42.7183 53.3287 41.5741 53.5415 40.4232 53.7111L40.4002 53.9321C41.2702 53.8031 42.1342 53.6511 42.9942 53.4741L42.7922 54.8681C41.9502 55.0421 41.1032 55.1921 40.2532 55.3171C40.2437 55.3916 40.2357 55.4663 40.2292 55.5411C41.3478 55.3755 42.4599 55.1687 43.5632 54.9211L43.8532 53.0731V53.0731ZM23.3182 55.5461C24.1469 55.7318 24.9805 55.8945 25.8182 56.0341L25.9832 57.4211C25.164 57.2842 24.3487 57.1251 23.5382 56.9441C23.5512 57.0181 23.5632 57.0931 23.5732 57.1661C24.6392 57.4051 25.7132 57.6051 26.7932 57.7651C26.7292 57.1581 26.6612 56.5461 26.5972 55.9371C25.4854 55.7726 24.38 55.5675 23.2832 55.3221L23.3182 55.5461V55.5461ZM27.4912 56.2781C28.3322 56.3861 29.1782 56.4721 30.0222 56.5351L30.0962 57.9121C29.2685 57.8507 28.4425 57.7674 27.6192 57.6621L27.6402 57.8821C28.7212 58.0211 29.8082 58.1211 30.8982 58.1821C30.8742 57.5771 30.8472 56.9701 30.8242 56.3651C29.7028 56.3051 28.584 56.2031 27.4702 56.0591L27.4912 56.2781ZM31.7062 56.4051L31.7122 56.6261C32.5612 56.6561 33.4102 56.6661 34.2572 56.6481L34.2392 58.0221C33.4082 58.0391 32.5772 58.0311 31.7482 58.0011L31.7532 58.2201C32.8452 58.2591 33.9362 58.2591 35.0272 58.2201C35.0432 57.6161 35.0602 57.0111 35.0752 56.4051C33.9526 56.4471 32.8288 56.4471 31.7062 56.4051V56.4051ZM39.3112 56.0591C38.1974 56.2031 37.0786 56.3051 35.9572 56.3651L35.9482 56.5881C36.7955 56.5399 37.6415 56.4695 38.4852 56.3771L38.3732 57.7581C37.5492 57.8501 36.7212 57.9191 35.8932 57.9641L35.8832 58.1831C36.9728 58.1222 38.0598 58.0221 39.1422 57.8831C39.1972 57.2741 39.2552 56.6661 39.3112 56.0591V56.0591ZM42.4652 57.1121C41.6522 57.2781 40.8332 57.4231 40.0142 57.5441C40.0062 57.6191 39.9972 57.6911 39.9902 57.7651C41.0707 57.6059 42.1447 57.4061 43.2102 57.1661C43.3062 56.5541 43.4022 55.9371 43.5002 55.3211C42.4034 55.5665 41.298 55.7716 40.1862 55.9361C40.1782 56.0111 40.1702 56.0831 40.1642 56.1591C41.0035 56.0349 41.8391 55.8872 42.6702 55.7161L42.4652 57.1121" fill="black"/>
<path d="M54.9635 31.171C54.7645 29.4 53.7845 27.852 52.0435 26.558C52.6055 24.675 53.3785 20.639 51.0705 17.371C48.9385 14.35 46.3125 12.97 43.9975 11.752C43.0575 11.258 42.1675 10.791 41.3275 10.232C40.7195 9.828 39.8895 9.17 39.8425 8.587C39.7855 7.88 40.5895 6.92 41.2075 6.104L42.7285 4.099L40.3815 3.149C40.2605 3.103 37.3625 2 33.7565 2C27.8435 2 23.4075 4.929 21.1095 10.297C21.0684 10.2912 21.027 10.2876 20.9855 10.286C20.8363 10.2772 20.6869 10.2729 20.5375 10.273H20.5355C16.8955 10.273 13.2405 12.883 10.9945 17.086C8.24451 22.233 8.34551 28.222 11.2525 32.342C11.8651 33.2164 12.5969 34.001 13.4265 34.673C13.7905 36.077 14.4505 37.19 15.3335 38.086L15.8525 42.137C15.9215 43.242 16.5355 44.676 18.8315 45.757L20.8035 56.493C21.1175 62 30.0185 62 33.3905 62C36.7625 62 45.6645 62 45.9785 56.492L47.9475 45.758C50.2445 44.677 50.8575 43.242 50.9275 42.137L51.4055 38.409C51.6965 38.146 51.9685 37.864 52.2185 37.556C52.6305 37.178 55.3435 34.55 54.9635 31.171V31.171ZM23.8305 10.796C24.5995 8.822 25.9635 7.017 27.7675 5.774C28.9195 4.961 30.2265 4.411 31.5675 4.081C32.2922 3.96975 33.0243 3.91392 33.7575 3.914C37.0355 3.914 39.6675 4.931 39.6675 4.931C38.9195 5.92 38.2055 6.896 37.8895 7.868C37.5625 8.871 37.8435 9.965 40.6335 12.41C41.5065 13.175 42.4725 13.911 43.4315 14.692C45.3365 16.262 47.3025 17.988 48.7695 20.195C50.8695 23.354 49.9065 26.837 49.8675 26.957C49.2845 24.828 48.0625 23.207 46.5855 21.756C44.9585 20.153 43.0415 18.735 41.1305 17.158C40.1775 16.363 39.2095 15.545 38.2945 14.6C37.3925 13.655 36.4815 12.601 35.9255 11.201C35.6565 10.506 35.5025 9.702 35.6095 8.916C35.7105 8.15745 36.0177 7.44114 36.4975 6.845C36.7055 6.594 36.9315 6.37 37.1615 6.161C36.0955 7.01 35.3325 7.993 34.9175 9.07C34.1775 10.883 34.1755 12.931 34.6205 14.929C35.0755 16.933 35.9735 18.893 37.2685 20.708C38.5545 22.543 40.2525 24.195 42.3425 25.864C39.5895 25.799 36.8535 24.668 34.6995 22.851C32.5425 21.035 30.9585 18.534 30.3455 15.77C29.7255 13.039 30.0815 9.897 31.9525 7.458C32.7452 6.43955 33.7752 5.63067 34.9525 5.102C34.6675 5.166 34.3795 5.224 34.1015 5.305C32.3205 5.78 30.7415 6.626 29.5245 7.746C27.0595 9.978 26.1335 13.352 26.6295 16.517C27.1035 19.7 28.9875 22.664 31.8945 24.571C33.2035 25.458 34.7025 26.1 36.3115 26.575C34.2665 26.815 32.1275 26.951 30.0765 26.24C28.2095 25.593 26.7525 24.307 25.5815 22.735C24.3207 21.0424 23.4933 19.0669 23.1715 16.981C22.8625 14.917 23.0605 12.775 23.8305 10.796V10.796ZM48.9825 41.968C48.9465 42.994 47.9415 43.793 46.2145 44.39L46.2135 44.394H46.2005C43.4545 45.339 38.8825 45.772 33.3885 45.772C27.8955 45.772 23.3205 45.339 20.5755 44.394H20.5605C20.5605 44.394 23.5855 46.968 33.3885 46.968C43.1715 46.968 46.2015 44.404 46.2125 44.395L44.0325 56.283C43.9635 58.942 40.2025 60.087 33.3875 60.087C26.5715 60.087 22.8115 58.942 22.7425 56.283L20.5575 44.389C18.8315 43.792 17.8285 42.994 17.7925 41.968L17.4995 39.649C21.3765 41.657 27.3485 41.67 33.5555 41.67C39.8415 41.67 45.4625 41.646 49.2615 39.797L48.9825 41.968V41.968ZM50.8735 36.169L50.8615 36.144C48.2265 39.738 41.4825 39.756 33.5545 39.756C24.0635 39.756 16.2545 39.743 15.1845 33.584C14.2766 32.9499 13.4879 32.1604 12.8545 31.252C7.74551 24.012 13.7095 12.186 20.5365 12.188C20.6365 12.188 20.7395 12.191 20.8415 12.196C20.1815 14.193 19.7225 16.416 20.2545 18.556C18.1255 23.88 20.1915 30.046 25.2455 32.67C26.2395 33.185 27.3155 33.598 28.4235 33.957L28.4335 33.987C28.4335 33.987 21.4345 37.234 15.9635 34.474L15.9645 34.475C19.4825 39.474 25.6575 36.449 28.9195 36.51C32.4805 36.575 35.0685 38.57 43.1525 36.697C48.5085 35.456 50.2365 34.981 51.0075 36.039C50.9245 36.123 50.8735 36.169 50.8735 36.169ZM47.5155 30.727C46.0535 30.447 44.5485 30.42 43.0375 30.508C41.5325 30.6 33.8265 33.114 28.1265 30.156C26.5405 29.333 25.0255 28.397 23.8455 27.17C22.6878 25.974 21.7624 24.5732 21.1165 23.039C20.5695 21.643 20.1595 20.163 20.2865 18.696C20.6815 20.138 22.8505 23.126 25.5135 25.384C30.4975 29.613 41.3945 27.763 43.1065 27.93C44.8075 28.094 46.5355 28.456 48.1025 29.213C49.6515 29.963 51.0605 31.164 51.5715 32.669C50.3905 31.575 48.9805 30.993 47.5155 30.727" fill="black"/>
<path d="M20.5974 13.001C19.2054 13.117 17.8624 13.73 16.7034 14.558C15.5514 15.401 14.6094 16.496 13.8834 17.702C12.4544 20.123 11.8574 23.027 12.4214 25.872C12.7084 27.288 13.2974 28.686 14.2174 29.892C15.1484 31.1078 16.3622 32.0779 17.7534 32.718C20.5364 33.989 23.5824 33.929 26.1834 33.123C23.4934 32.577 21.0004 31.849 19.1774 30.511C17.3424 29.202 16.2734 27.35 15.8524 25.265C15.4354 23.179 15.6414 20.901 16.3804 18.757C17.1344 16.61 18.3884 14.56 20.5974 13.001" fill="black"/>
</svg>
