<svg width="64" height="64" viewBox="0 0 64 64" fill="none" xmlns="http://www.w3.org/2000/svg">
<path d="M31.999 13C26.177 13 20.742 14.002 16.138 15.729C15.623 15.839 15.094 16.023 14.619 16.338C13.8551 16.6662 13.1039 17.0231 12.367 17.408C11.9875 17.4818 11.6396 17.6698 11.37 17.947C10.1121 18.6557 8.91654 19.4696 7.796 20.38C7.6167 20.327 7.43095 20.2991 7.244 20.297C6.694 20.297 6.181 20.523 5.798 20.931C5.206 21.564 5.06 22.315 5.097 23.037C5.04 23.107 4.99 23.179 4.934 23.249C4.319 23.474 3.771 24.001 3.633 24.915C3.621 24.993 3.629 25.074 3.623 25.152C2.573 26.98 2 28.938 2 30.976C2 35.264 4.522 39.205 8.72 42.299C12.433 47.396 21.443 51 32 51C42.558 51 51.573 47.395 55.285 42.295C59.479 39.201 62 35.262 62 30.976C62 21.063 48.541 13 31.999 13ZM5.611 24.613C6.124 24.613 6.873 25.223 7.169 25.528C6.809 25.887 6.44 26.446 6.16 27.13C6.10125 27.2754 6.04755 27.4229 5.999 27.572C5.943 27.411 5.832 27.224 5.645 26.913C5.342 26.411 5.026 25.747 5.117 25.14C5.174 24.755 5.365 24.613 5.611 24.613V24.613ZM4.14 30.315C3.989 29.77 4.606 29.501 5.022 29.411C5.48 29.312 5.654 29.332 5.751 29.222C5.785 29.56 5.895 29.793 6.085 29.853C6.567 30.003 7.381 29.027 7.941 27.74C8.503 26.447 8.582 25.306 8.082 25.119C7.85 25.033 7.535 25.182 7.211 25.491C7.076 24.525 6.08 22.826 6.892 21.959C6.9358 21.9087 6.9899 21.8684 7.05062 21.8408C7.11135 21.8132 7.17729 21.7989 7.244 21.799C7.565 21.799 7.911 22.102 8.102 22.315C8.182 22.403 8.265 22.456 8.349 22.493L8.348 22.557C8.392 23.864 8.878 24.868 9.43 24.793C9.821 24.742 10.149 24.183 10.305 23.418C10.731 23.7 11.79 23.15 12.744 22.246C13.716 21.321 14.205 20.372 13.796 20.04C13.39 19.706 12.238 20.124 11.266 21.061C11.096 21.225 10.95 21.393 10.815 21.56C9.25 21.441 11.578 19.727 12.24 19.473C12.331 18.997 12.529 18.86 12.777 18.86C12.893 18.86 13.022 18.893 13.154 18.933C13.088 19.052 13.062 19.167 13.101 19.272C13.278 19.741 14.511 19.79 15.875 19.456C17.241 19.12 18.236 18.558 18.082 18.122C17.929 17.688 16.667 17.518 15.278 17.821C15.236 17.83 15.199 17.842 15.158 17.852C16.14 16.784 18.331 17.289 19.232 16.543C19.34 16.452 19.488 16.422 19.643 16.422C19.8317 16.429 20.0187 16.4593 20.2 16.512C20.378 16.558 20.512 16.575 20.63 16.575C20.888 16.575 21.068 16.496 21.449 16.473C21.483 16.471 21.519 16.469 21.555 16.469C21.789 16.469 22.053 16.528 22.149 16.766C22.602 16.698 22.836 16.702 23.229 16.526C22.373 15.953 23.498 15.749 24.083 15.708C23.89 15.829 23.793 15.964 23.84 16.103C23.971 16.496 25.128 16.728 26.472 16.716C26.852 16.747 27.269 16.759 27.704 16.743C29.115 16.684 30.148 16.403 30.008 16.032C29.924 15.817 29.449 15.613 28.791 15.482C29.198 15.4084 29.6091 15.3596 30.022 15.336H30.031C29.572 14.758 29.694 14.57 30.032 14.57C30.532 14.57 31.503 14.978 31.779 15.142C31.796 15.152 31.812 15.165 31.829 15.176C31.34 15.241 31.255 15.936 31.651 16.779C32.071 17.683 32.868 18.383 33.44 18.384C34.014 18.39 34.161 17.722 33.752 16.845C33.722 16.781 33.686 16.719 33.651 16.656C33.926 17.003 33.871 17.129 34.401 17.322C35.229 17.623 34.839 17.853 35.33 18.293C35.772 18.404 36.216 18.57 36.634 18.752C36.848 18.844 38.334 20.55 37.616 20.55C37.581 20.55 37.543 20.548 37.501 20.545C37.102 20.516 36.703 20.402 36.325 20.279C36.3091 20.2219 36.2813 20.1689 36.2434 20.1233C36.2055 20.0778 36.1583 20.0409 36.105 20.015C35.626 19.747 34.553 19.925 33.731 20.486C33.245 20.816 32.959 21.191 32.899 21.492C32.7625 21.4379 32.6221 21.3941 32.479 21.361C32.726 21.129 32.922 20.787 33.012 20.392C33.19 19.601 32.861 18.853 32.265 18.718C31.675 18.585 31.056 19.157 30.896 20.003C30.807 20.464 30.872 20.892 31.039 21.204C30.867 21.202 30.689 21.204 30.51 21.214C29.114 21.284 28.096 21.704 28.22 22.074C28.272 22.226 28.511 22.34 28.862 22.416C28.507 22.516 28.128 22.66 27.76 22.861C27.158 23.187 26.733 23.57 26.531 23.894C26.0237 23.8836 25.5169 23.9303 25.02 24.033C23.67 24.301 22.706 24.9 22.844 25.295C22.983 25.693 24.158 25.709 25.49 25.404C26.559 25.158 27.402 24.8 27.633 24.482C28.139 24.3398 28.6277 24.142 29.09 23.892C30.04 23.384 30.608 22.837 30.465 22.517C30.618 22.511 30.775 22.503 30.934 22.492C31.997 22.408 32.852 22.211 33.14 21.972C33.359 22.07 33.695 22.052 34.065 21.968C34.007 22.529 34.473 23.32 33.996 23.878C33.9375 23.9497 33.8636 24.0073 33.7799 24.0466C33.6961 24.0859 33.6045 24.1059 33.512 24.105C33.207 24.105 32.884 23.914 32.671 23.705C32.379 23.418 31.74 23.158 31.254 23.158C31.1247 23.1539 30.9961 23.1792 30.878 23.232C30.302 23.517 29.954 23.332 29.453 23.701C29.662 23.717 30.707 23.822 30.234 24.305C30.271 24.303 30.391 24.298 30.555 24.298C31.18 24.298 32.45 24.359 32.241 24.799C31.962 25.391 30.538 25.529 30.008 25.619C29.55 25.696 29.033 25.769 28.523 25.769C28.082 25.769 27.646 25.714 27.258 25.56C26.976 25.447 26.75 25.356 26.52 25.356C26.341 25.356 26.161 25.412 25.95 25.554C25.594 25.797 26.246 26.011 26.698 26.011C27.058 26.011 27.379 26.079 27.469 26.308C27.64 26.744 26.503 27.189 26.265 27.292C26.081 27.373 24.272 27.922 23.343 27.922C22.926 27.922 21.884 27.65 21.471 28.105C21.307 28.281 21.048 28.334 20.785 28.334C20.564 28.334 18.875 28.542 18.063 28.755C17.776 28.956 17.784 29.109 18.087 29.214C18.184 29.339 18.191 29.468 18.108 29.597C17.908 29.945 17.441 30.142 17.092 30.281C17.056 30.295 17.018 30.306 16.982 30.32C16.98 30.31 16.984 30.299 16.981 30.291C16.849 29.93 15.97 29.941 14.934 30.33C14.713 29.967 13.844 29.711 12.748 29.738C12.331 29.748 11.94 29.806 11.592 29.892C11.828 29.421 11.976 28.699 11.961 27.917C11.938 26.647 11.471 25.673 10.915 25.739C10.359 25.805 9.948 26.927 10.003 28.247C10.042 29.202 10.299 29.97 10.637 30.284C10.42 30.434 10.28 30.6 10.264 30.778C10.215 31.313 11.224 31.667 12.518 31.581C12.676 31.569 12.832 31.554 12.983 31.534C12.621 31.899 12.439 32.251 12.528 32.483C12.593 32.653 12.787 32.732 13.067 32.734C12.8753 32.8961 12.6785 33.0522 12.477 33.202C11.91 33.614 12.906 34.048 12.245 34.552C12.022 34.722 11.731 34.78 11.442 34.78C11.264 34.78 11.087 34.758 10.927 34.728C10.5607 34.6608 10.2072 34.537 9.879 34.361C10.103 33.869 10.004 32.971 9.573 32.101C9.047 31.04 8.216 30.41 7.744 30.738C7.402 30.973 7.355 31.661 7.561 32.435C7.41647 32.3479 7.27784 32.2513 7.146 32.146C6.80127 32.2325 6.4474 32.2771 6.092 32.279C5.994 32.279 5.897 32.275 5.8 32.267C5.42 32.238 4.76 32.113 4.728 31.619C4.694 30.994 5.217 31.392 4.559 30.869C4.36543 30.7321 4.21905 30.5385 4.14 30.315V30.315ZM31.023 27.737L30.93 26.991C31.397 26.911 31.928 26.786 32.41 26.555L33.876 26.371L34 27.364L31.023 27.737V27.737ZM33 37.226L32.504 38.093L29.9 36.605L30.396 35.738L33 37.226ZM33.277 35.673C34.053 34.052 34.671 33.454 35.519 33.206C36.014 33.06 36.25 32.597 36.599 32.321L34.1 30.893L34.596 30.024L37.2 31.512L36.809 32.196C37.025 32.097 37.286 32.07 37.663 32.212C38.879 32.671 39.94 31.532 40.255 33.503C40.568 35.474 38.304 35.358 37.928 36.567C37.554 37.772 35.693 37.208 34.883 38.376C34.071 39.544 32.323 37.665 33.277 35.673V35.673ZM34.115 21.962C34.5918 21.8414 35.0466 21.6467 35.463 21.385C35.534 21.34 35.596 21.295 35.658 21.25C36.002 21.71 36.623 22.757 35.817 22.874C35.7729 22.8797 35.7285 22.8823 35.684 22.882C35.092 22.882 34.49 22.368 34.115 21.962V21.962ZM38 28.604L38.496 27.737L41.1 29.225L40.604 30.092L38 28.604ZM40.241 25.149C39.296 24.708 38.067 25.684 37.114 26.756C36.161 27.826 36.276 26.041 36.497 25.33C36.726 24.598 36.902 24.331 36.982 23.964C37.257 23.754 37.47 23.474 37.593 23.141C37.727 22.776 37.736 22.403 37.671 22.049C38.025 22.041 38.322 21.959 38.566 21.831C39.004 21.854 39.89 21.766 40.721 22.873C41.61 24.06 41.188 25.591 40.241 25.149V25.149ZM27.777 32.013C28.773 32.136 28.781 33.622 28.2 34.39C27.619 35.156 26.929 37.533 25.767 38.001C24.602 38.468 23.597 37.071 23.755 35.155C23.916 33.239 26.126 31.81 27.777 32.013V32.013ZM25.548 31.278L26.494 28.796C26.677 28.737 26.818 28.689 26.868 28.667L26.909 28.65C26.936 28.638 26.956 28.626 26.983 28.614L27.552 28.831L26.483 31.634L25.548 31.278V31.278ZM23 33.226L22.504 34.095L19.9 32.607L20.396 31.738L23 33.226ZM31.999 46.953C17.995 46.953 6.372 41.054 4.332 33.382C4.686 33.578 5.125 33.722 5.686 33.765C5.89962 33.7809 6.11399 33.7843 6.328 33.775C6.47 34.011 6.667 34.216 6.914 34.374L6.988 34.422L7.067 34.46C7.332 34.588 7.61 34.665 7.897 34.689C8.575 35.457 9.577 36.007 10.658 36.206C10.926 36.256 11.192 36.282 11.443 36.282C11.673 36.282 11.887 36.253 12.094 36.211C13.33 36.982 14.769 37.68 16.385 38.283C16.698 38.596 16.974 39.179 16.492 40.234C15.666 42.041 18.56 44.362 21.164 42.985C23.768 41.607 27.539 42.043 28.953 42.985C30.367 43.924 34.368 44.215 36.467 42.985C38.567 41.752 40.166 40.781 43.717 40.832C47.268 40.883 49.935 37.588 51.74 36.324L51.746 36.319C54.857 34.427 56.703 32.075 56.703 29.525C56.703 24.4 49.22 20.078 38.979 18.698C38.683 18.194 38.102 17.75 37.227 17.374C36.9213 17.2401 36.6097 17.1203 36.293 17.015C36.021 16.509 35.615 16.182 34.989 15.942C34.8937 15.8028 34.7891 15.6702 34.676 15.545C34.5223 15.3749 34.3608 15.2121 34.192 15.057C48.609 15.696 60 22.589 60 30.976C60 39.785 47.438 46.953 31.999 46.953V46.953ZM47.138 31.253C46.517 31.048 45.808 30.306 44.628 30.607C43.448 30.908 41.333 31.615 42.069 29.441C42.512 28.127 43.327 24.81 45.69 24.873C48.052 24.936 47.574 27.678 47.574 27.678C47.574 27.678 47.758 31.46 47.138 31.253V31.253ZM44.876 33.374L45 34.366L42.023 34.737L41.899 33.745L44.876 33.374ZM47.899 26.108L50.876 25.737L51 26.729L48.023 27.1L47.899 26.108Z" fill="black"/>
<path d="M27.3648 18.361C28.7658 18.691 30.0068 18.707 30.1488 18.382C30.2938 18.058 29.2738 17.47 27.8548 17.087C26.4388 16.702 25.1738 16.712 25.0468 17.091C24.9188 17.471 25.9628 18.031 27.3648 18.361V18.361ZM18.0588 26.073C16.7598 26.522 15.8608 27.292 16.0178 27.719C16.1758 28.153 17.3178 28.051 18.5928 27.567C19.8658 27.083 20.8108 26.428 20.6708 26.032C20.5348 25.64 19.3518 25.624 18.0588 26.073Z" fill="black"/>
<path d="M14.0672 29.2569C14.3592 29.1479 14.5512 28.7559 14.6222 28.2339C14.6879 28.2687 14.7619 28.285 14.8362 28.2809C15.3742 28.2419 15.9122 27.2339 16.0472 26.0449C16.0532 25.9899 16.0532 25.9399 16.0582 25.8869C16.0776 25.9303 16.1062 25.9689 16.1422 25.9999C16.5382 26.3109 17.6272 25.7889 18.6202 24.9259C18.8542 24.7209 19.0582 24.5159 19.2332 24.3169C19.3812 24.5879 19.5722 24.7509 19.7912 24.7389C19.9235 24.7231 20.0475 24.6657 20.1452 24.5749C20.1886 24.6366 20.2486 24.6848 20.3182 24.7139C20.8102 24.8959 21.7072 24.0809 22.3572 22.9639C22.5211 22.6832 22.6597 22.3883 22.7712 22.0829C23.3082 22.1669 24.1072 21.5429 24.6132 20.6869C24.7612 20.4369 24.8622 20.1929 24.9262 19.9639C25.0672 20.6439 25.4152 21.1889 25.8152 21.3939C25.3728 21.5185 24.9498 21.7036 24.5582 21.9439C23.4992 22.5849 22.9732 23.4189 23.3532 23.7099C23.7322 24.0029 24.8712 23.6549 25.9282 23.0279C26.9862 22.3949 27.5612 21.7109 27.1842 21.4039C27.0692 21.3119 26.8742 21.2709 26.6372 21.2689C26.9302 20.9759 27.0832 20.4169 26.9912 19.7689C26.8612 18.8449 26.2752 18.0659 25.6842 18.0559C25.2662 18.0479 24.9732 18.4489 24.8872 19.0249C24.8211 18.9122 24.7173 18.8265 24.5942 18.7829C24.8862 18.6269 25.0432 18.4569 24.9882 18.2909C24.8532 17.8889 23.5902 17.6289 22.1722 17.7829C20.7872 17.9309 19.7952 18.4489 19.8982 18.8789L19.8942 18.8729C19.5072 18.5509 18.3232 18.8159 17.2842 19.5569C16.4532 20.1469 15.9752 20.8479 16.0122 21.2659C15.8361 21.2945 15.6613 21.3302 15.4882 21.3729C14.1262 21.7049 13.1792 22.4009 13.3492 22.8519C13.5202 23.3049 14.7252 23.3129 16.0652 22.9439C17.4002 22.5749 18.3832 21.9969 18.2332 21.5779C18.1832 21.4369 17.9992 21.3329 17.7342 21.2649C18.0472 21.1129 18.3732 20.9249 18.6932 20.7019C19.5752 20.0829 20.1022 19.4289 20.0022 19.0479C20.3532 19.3699 21.4652 19.4599 22.6932 19.2959C22.9392 19.2629 23.1692 19.2199 23.3872 19.1749C22.9576 19.544 22.6328 20.0196 22.4452 20.5539C22.0392 20.5519 21.4742 20.9469 20.9802 21.5829C20.8992 20.7669 20.5822 20.1849 20.1432 20.1669C19.5642 20.1469 19.0202 21.1609 18.9372 22.4469C18.9292 22.5679 18.9302 22.6829 18.9302 22.7989C18.4202 22.9259 17.7782 23.2679 17.1902 23.7869C16.6052 24.3049 16.2142 24.8729 16.0692 25.3169C16.0242 24.4859 15.7222 23.8889 15.2802 23.8789C14.7752 23.8679 14.2822 24.6489 14.1042 25.6929C13.7962 25.1809 13.4072 24.8929 13.0652 24.9899C12.5182 25.1459 12.3192 26.2609 12.6102 27.4609C12.9012 28.6609 13.5472 29.4539 14.0672 29.2569" fill="black"/>
</svg>
